/* XPM */
static char *_177e11ff2f042ebd4c1854727d0c8f96N5o3HSDPrejU9mq[] = {
/* columns rows colors chars-per-pixel */
"64 64 156 2 ",
"   c #001700",
".  c #0E1D0B",
"X  c #042502",
"o  c #082305",
"O  c #062B01",
"+  c #0B2C06",
"@  c #0C260A",
"#  c #0E2C0A",
"$  c #10270E",
"%  c #112D0E",
"&  c #0A3206",
"*  c #0F340B",
"=  c #0F390B",
"-  c #10320D",
";  c #133A0E",
":  c #152414",
">  c #192417",
",  c #152D13",
"<  c #192D16",
"1  c #1C251C",
"2  c #1D2D1A",
"3  c #143112",
"4  c #193316",
"5  c #163A12",
"6  c #193A16",
"7  c #1D341A",
"8  c #1D3A1A",
"9  c #212E1E",
"0  c #21341E",
"q  c #20381E",
"w  c #232D22",
"e  c #243422",
"r  c #253B22",
"t  c #2D392C",
"y  c #313D2F",
"u  c #313830",
"i  c #1F421A",
"p  c #21441C",
"a  c #274224",
"s  c #2D442C",
"d  c #2E482B",
"f  c #394537",
"g  c #374E34",
"h  c #395235",
"j  c #3C543A",
"k  c #425B3E",
"l  c #424942",
"z  c #445B42",
"x  c #495549",
"c  c #4B5C4A",
"v  c #496147",
"b  c #4B614A",
"n  c #50634F",
"m  c #50694C",
"M  c #5F775D",
"N  c #5F785B",
"B  c #606E5D",
"V  c #617B5E",
"C  c #656F66",
"Z  c #647263",
"A  c #667965",
"S  c #697368",
"D  c #6D7E6B",
"F  c #6C836A",
"G  c #72896F",
"H  c #738972",
"J  c #7A8877",
"K  c #798F78",
"L  c #80917F",
"P  c #829D7E",
"I  c #879B86",
"U  c #8BA687",
"Y  c #8EA48B",
"T  c #95A393",
"R  c #95AC93",
"E  c #9DA69C",
"W  c #9DAC9B",
"Q  c #9CB49A",
"!  c #A3B09F",
"~  c #A4ADA3",
"^  c #A2B3A1",
"/  c #A6BBA5",
"(  c #A9B5A9",
")  c #ABBCAA",
"_  c #B5BAB6",
"`  c #AAC5A6",
"'  c #B2C5AF",
"]  c #B3CDB0",
"[  c #B9CCB7",
"{  c #B9C0B9",
"}  c #BECCBD",
"|  c #BDD0BC",
" . c #C5D6C3",
".. c #C7DDC6",
"X. c #CCD5CD",
"o. c #CEDDCC",
"O. c #D0DCCE",
"+. c #D4DED5",
"@. c #CDE1CC",
"#. c #CFEDCB",
"$. c #D0E1CE",
"%. c #D2EACF",
"&. c #D4E6D2",
"*. c #D6EDD3",
"=. c #D9ECD6",
"-. c #DBE5DA",
";. c #DCEADC",
":. c #D7F1D4",
">. c #DDF3DB",
",. c #DBF8D9",
"<. c #E0EDDE",
"1. c #E3ECE2",
"2. c #E6F4E5",
"3. c #E7FEE6",
"4. c #EAF6EB",
"5. c #EEFCED",
"6. c #EDFFEC",
"7. c #EEFFED",
"8. c #EFFFEE",
"9. c #EDFCEB",
"0. c #F1FFEE",
"q. c #F0FFEF",
"w. c #F2FFEF",
"e. c #F1FFEE",
"r. c #EFF9F0",
"t. c #F0FAF1",
"y. c #F2FCF1",
"u. c #F1FFF0",
"i. c #F2FFF0",
"p. c #F3FFF0",
"a. c #F2FFF1",
"s. c #F3FFF2",
"d. c #F3FFF3",
"f. c #F4FFF1",
"g. c #F5FFF2",
"h. c #F4FEF3",
"j. c #F4FFF3",
"k. c #F5FFF3",
"l. c #F5FCF5",
"z. c #F4FFF4",
"x. c #F5FFF4",
"c. c #F7FFF4",
"v. c #F6FFF5",
"b. c #F7FFF6",
"n. c #F7FFF7",
"m. c #F5FFF4",
"M. c #F8FFF6",
"N. c #F8FFF6",
"B. c #F8FFF8",
"V. c #F9FFF8",
"C. c #F8FFF9",
"Z. c #F9FFFA",
"A. c #FBFFFB",
"S. c #FCFFFD",
"D. c #FEFFFF",
"F. c #F9FFF9",
/* pixels */
"- - - - - - - - - - - - - - - - - - - - - - - - - - - - - - - - - - - - - - - - - - - - - - - - - - - - - - - - - - - - - - - - ",
"- - - - - - - - - - - - - - - - - - - - - - - - - - - - - - - - - - - - - - - - - - - - - - - - - - - - - - - - - - - - - - - - ",
"- - - - - - - - - - - - - - - - - - - - - - - - - - - - - - - - - - - - - - - - - - - - - - - - - - - - - - - - - - - - - - - - ",
"- - - - - - - - - - - - - - - - - - - - - - - - - - - - - - - - - - - - - - - - - - - - - - - - - - - - - - - - - - - - - - - - ",
"- - - - - - - - - - - - - - - - - - - - - - - - - - - - - - - - - - - - - - - - - - - - - - - - - - - - - - - - - - - - - - - - ",
"- - - - - - - - - - - - - - - - - - - - - - - - - - - - - - - - - - - - - - - - - - - - - - - - - - - - - - - - - - - - - - - - ",
"- - - - - - - - - - - - - - - - - - - - - - - - - - - - - - - - - - - - - - - - - - - - - - - - - - - - - - - - - - - - - - - - ",
"- - - - - - - - - - - - - - - - - - - - - - - - - - - - - - - - - - - - - - - - - - - - - - - - - - - - - - - - - - - - - - - - ",
"- - - - - - - - - - - - - - - - - - - - - - - - - - - - - - - - - - - - - - - - - - - - - - - - - - - - - - - - - - - - - - - - ",
"- - - - - - - - - - - - - - - - - - - - - - - - - - - - - - - - - - - - - - - - - - - - - - - - - - - - - - - - - - - - - - - - ",
"- - - - - - - - - - - - - - - - - - - - - - - - - - - - - - - - - - - - - - - - - - - - - - - - - - - - - - - - - - - - - - - - ",
"- - - - - - - - - - - - - - - - - - - - - - - - - - - - - - - - - - - - - - - - - - - - - - - - - - - - - - - - - - - - - - - - ",
"- - - - - - - - - - - - - - - - - - - - - - - - - - - - - - - - - - - - - - - - - - - - - - - - - - - - - - - - - - - - - - - - ",
"- - - - - - - - - - - - - - - - - - - - - - - - - - - - - - - - - - - - - - - - - - - - - - - - - - - - - - - - - - - - - - - - ",
"- - - - - - - - - - - - - - - - - - - - - - - - - - - - - - - - - - - - - - - - - - - - - - - - - - - - - - - - - - - - - - - - ",
"- - - - - - - - - - - - - - - - - - - - - - - - - - - - - - - - - - - - - - - - - * * * * * * - - - - - - - - - - - - - - - - - ",
"- - - - - - - - - - - - - - - - * * * * - - - - 4 % + , # 4 % h z g $ 4 @ + 8 * * * * * * * * * - - - - - - - - - - - - - - - - ",
"- - - - - - - - - - - - - - - - * * * * - - - - o 4 8 4 4 + % *.g.T : 7 4 4 - * * * * * * * * * - - - - - - - - - - - - - - - - ",
"- - - - - - - - - - - - - - - - * * * * - - - - 8 @ % 4 7 r o >.6.W 2 e % 3 # 3 * * * * * * * * - - - - - - - - - - - - - - - - ",
"- - - - - - - - - - - - - - - - * * * * - - - - % 4 r 4   7 , &.0.! : < @ 4 @ # - * * * * * * * - - - - - - - - - - - - - - - - ",
"- - - - - - - - - - - - - - - - * * * * - - - - @ , @ 7 , , < $.M.E : e < 4 % 8 - - - - - - - - - - - - - - - - - - - - - - - - ",
"- - - - - - - - - - - - - - - - * * * * - - - 3 4 4 , s F | =.x.A.g.O.&.) G k + 3 - - - - - - - - - - - - - - - - - - - - - - - ",
"- - - - - - - - - - - - - - - - * * * * - - - 3 4 @ H =.g.g.x.g.x.A.M.a.a.0.3.U 3 - - - 3 3 3 - - - - - - - - - - - - - - - - - ",
"- - - - - - - - - - - - - - - - * * * * - - 3 , 7 K g.g.x.7.x.x.A.g.A.0.x.a.0.R 3 3 - - 3 3 3 - - - - - - - - - - - - - - - - - ",
"- - - - - - - - - - - - - - - - * * * * - - 3 , j a.7.a.0.W Z 1.A.T w B ^ 3.0.U 3 3 - - 3 3 3 - - - - - - - - - - - - - - - - - ",
"- - - - - - - - - - - - - - - - * * * - - 3 , , I a.x.x.Z w : +.A.~ 9 2 2 b Q P 3 - - - 3 3 3 - - - - - - - - - - - - - - - - - ",
"- - - - - - - - - - - - - - - - * * - - - 3 , ,  .a.x.2.: 1 e ;.A.E > 2 , , a @ 3 - - - - - - - - - - - - - - - - - - - - - - - ",
"- - - - - - - - - - - - - - - - * * - - - 3 , , [ 7.x.4.t 1 1 1.A.E 9 7 < o % 3 - - - - - - - - - - - - - - - - - - - - - - - - ",
"- - - - - - - - - - - - - - - - * * - - - 3 , , / a.x.A.~ l 1 X.A.T : : r 7 @ # - * * * * * * * - - - - - - - - - - - - - - - - ",
"- - - - - - - - - - - - - - - - * * - - 3 3 , , n 2.A.t.A.-._ A.M.W r @ , 4 # 6 * * * * * * * * - - - - - - - - - - - - - - - - ",
"- - - - - - - - - - - - - - - - * * - - 3 3 , , 7 ) A.r.A.D.D.A.g.9. .R m a o - * * * * * * * * - - - - - - - - - - - - - - - - ",
"- - - - - - - - - - - - - - - - * * - - - 3 3 , , $ L 7.x.a.A.A.M.x.7.g.a.%.V % - - * * * * * * * - - - - - - - - - - - - - - - ",
"- - - - - - - - - - - - - - - - - - - - * * * - O 8 % 8 N Q >.g.x.A.4.A.A.5.x.D , q 4 - * & * & * - - - - - - - - - - - - - - - ",
"- - - - - - - - - - - - - - - - * * - * * * * * 5 X i # 6 3 + @.A.1.{ A.x.A.A.-.t 7 , , * - * = * - - - - - - - - - - - - - - - ",
"- - - - - - - - - - - - - - - - - * * * * * * * + p # o % @ 4 >.a.~ w u X.A.A.x.c < , - * ; & ; * - - - - - - - - - - - - - - - ",
"- - - - - - - - - - - - - - - - 3 3 * * * * * - + - + 4 4 7 , o.x.E 1 w C 4.4.x.A 7 , 3 # ; O * * - - - - - - - - - - - - - - - ",
"- - - - - - - - - - - - - - - - 3 3 * * * * - - - 4 % 7 , 2 2 ;.x.~ > > S A.x.7.A , , - # ; O * * - - - - - - - - - - - - - - - ",
"- - - - - - - - - - - - - - - - 3 3 * * * * - - #.` v , , : w -.a.~ > : ( 7.7.g.z , % - * 5 & ; * - - - - - - - - - - - - - - - ",
"- - - - - - - - - - - - - - - - * * * * * * - - ,.>.0.[ J f w 1.A.E x } 5.x.a...7 , % - - - * * * - - - - - - - - - - - - - - - ",
"- - - - - - - - - - - - - - - - * * * * * * - 3 :.0.a.6.x.M.A.t.x.x.4.7.x.7.>.s o 4 3 - - * * & - - - - - - - - - - - - - - - - ",
"- - - - - - - - - - - - - - - - - - * * * * 3 3 ] 6.a.0.4.M.A.x.A.4.x.x.>./ g @ , 3 - - - * * * - - - - - - - - - - - - - - - - ",
"- - - - - - - - - - - - - - - - - - * * * * 3 3 4 d F '  .<.1.A.x.x.@.I s , o 6 3 - - - - - * * - - - - - - - - - - - - - - - - ",
"- - - - - - - - - - - - - - - - 3 3 * * * * - 3 3 + @ , e 2 y o.7.T e , , 7 , # - - - - - - - - - - - - - - - - - - - - - - - - ",
"- - - - - - - - - - - - - - - - 3 3 * * * * - - + 8 8 @ 0 . . <.x.R , 7 7 + % - - - - - - - - - - - - - - - - - - - - - - - - - ",
"- - - - - - - - - - - - - - - - - - * * * * * - 5 + 3 % , , 0 =.a.W < $ , 3 8 * - * - - - - - - - - - - - - - - - - - - - - - - ",
"- - - - - - - - - - - - - - - - - - * * * * * * * + - % 7 % , *.0.W 7 4 % o # * * * * - - - - - - - - - - - - - - - - - - - - - ",
"- - - - - - - - - - - - - - - - - - - * * * * * & 6 - O 6 + 3 %.a.Y , 4 8 - # 5 * * * * - - - - - - - - - - - - - - - - - - - - ",
"- - - - - - - - - - - - - - - - - - - - * * * * - * 5 5 - 3 3 P Q M % % # - # * * * * * - - - - - - - - - - - - - - - - - - - - ",
"- - - - - - - - - - - - - - - - - - - - - * - * - - - - - - - - - - - - - - - - - - - - - - - - - - - - - - - - - - - - - - - - ",
"- - - - - - - - - - - - - - - - - - - - - - - - - - - - - - - - - - - - - - - - - - - - - - - - - - - - - - - - - - - - - - - - ",
"- - - - - - - - - - - - - - - - - - - - - - - - - - - - - - - - - - - - - - - - - - - - - - - - - - - - - - - - - - - - - - - - ",
"- - - - - - - - - - - - - - - - - - - - - - - - - - - - - - - - - - - - - - - - - - - - - - - - - - - - - - - - - - - - - - - - ",
"- - - - - - - - - - - - - - - - - - - - - - - - - - - - - - - - - - - - - - - - - - - - - - - - - - - - - - - - - - - - - - - - ",
"- - - - - - - - - - - - - - - - - - - - - - - - - - - - - - - - - - - - - - - - - - - - - - - - - - - - - - - - - - - - - - - - ",
"- - - - - - - - - - - - - - - - - - - - - - - - - - - - - - - - - - - - - - - - - - - - - - - - - - - - - - - - - - - - - - - - ",
"- - - - - - - - - - - - - - - - - - - - - - - - - - - - - - - - - - - - - - - - - - - - - - - - - - - - - - - - - - - - - - - - ",
"- - - - - - - - - - - - - - - - - - - - - - - - - - - - - - - - - - - - - - - - - - - - - - - - - - - - - - - - - - - - - - - - ",
"- - - - - - - - - - - - - - - - - - - - - - - - - - - - - - - - - - - - - - - - - - - - - - - - - - - - - - - - - - - - - - - - ",
"- - - - - - - - - - - - - - - - - - - - - - - - - - - - - - - - - - - - - - - - - - - - - - - - - - - - - - - - - - - - - - - - ",
"- - - - - - - - - - - - - - - - - - - - - - - - - - - - - - - - - - - - - - - - - - - - - - - - - - - - - - - - - - - - - - - - ",
"- - - - - - - - - - - - - - - - - - - - - - - - - - - - - - - - - - - - - - - - - - - - - - - - - - - - - - - - - - - - - - - - ",
"- - - - - - - - - - - - - - - - - - - - - - - - - - - - - - - - - - - - - - - - - - - - - - - - - - - - - - - - - - - - - - - - ",
"- - - - - - - - - - - - - - - - - - - - - - - - - - - - - - - - - - - - - - - - - - - - - - - - - - - - - - - - - - - - - - - - ",
"- - - - - - - - - - - - - - - - - - - - - - - - - - - - - - - - - - - - - - - - - - - - - - - - - - - - - - - - - - - - - - - - "
};
