/* XPM */
static char *_37fec5bab244367a2f8f33661a6af80mnzW2X6Nm0xMZzFO[] = {
/* columns rows colors chars-per-pixel */
"64 64 256 2 ",
"   c #072D06",
".  c #093209",
"X  c #082D16",
"o  c #0C351B",
"O  c #0C3A1D",
"+  c #073517",
"@  c #12341B",
"#  c #153918",
"$  c #143312",
"%  c #092B26",
"&  c #142E29",
"*  c #0C3523",
"=  c #03352C",
"-  c #0C352C",
";  c #023A2D",
":  c #0B392C",
">  c #063824",
",  c #13332C",
"<  c #143727",
"1  c #0C3533",
"2  c #013B34",
"3  c #083737",
"4  c #143635",
"5  c #132C32",
"6  c #1D341B",
"7  c #184418",
"8  c #104116",
"9  c #2F5619",
"0  c #3B6415",
"q  c #3C641B",
"w  c #3D6A1B",
"e  c #3A6814",
"r  c #3F711C",
"t  c #3E700F",
"y  c #084327",
"u  c #004333",
"i  c #00433B",
"p  c #004B3B",
"a  c #074738",
"s  c #00513C",
"d  c #154732",
"f  c #2A4A2A",
"g  c #2D5334",
"h  c #315432",
"j  c #3D6522",
"k  c #3E6826",
"l  c #3B6734",
"z  c #42661B",
"x  c #426B1C",
"c  c #436A17",
"v  c #44731D",
"b  c #4A751C",
"n  c #4C7B1D",
"m  c #467719",
"M  c #537B1E",
"N  c #51731F",
"B  c #465E25",
"V  c #436523",
"C  c #446C23",
"Z  c #4A6D24",
"A  c #4A6D2C",
"S  c #466729",
"D  c #457323",
"F  c #4B7425",
"G  c #4B7B24",
"H  c #4B742B",
"J  c #4D7A2B",
"K  c #467629",
"L  c #517B24",
"P  c #51762C",
"I  c #537C2C",
"U  c #547826",
"Y  c #486A35",
"T  c #4B7434",
"R  c #4D7A34",
"E  c #4B7639",
"W  c #527B33",
"Q  c #537C3C",
"!  c #567835",
"~  c #516D33",
"^  c #445F1C",
"/  c #003F40",
"(  c #034A43",
")  c #085546",
"_  c #145649",
"`  c #39534F",
"'  c #0F6E59",
"]  c #346F50",
"[  c #0C7C6B",
"{  c #097A66",
"}  c #137C6D",
"|  c #1A7A6C",
" . c #167666",
".. c #187D71",
"X. c #297D6E",
"o. c #4D7744",
"O. c #567A48",
"+. c #4F7452",
"@. c #697B7A",
"#. c #546C60",
"$. c #4C831D",
"%. c #53851D",
"&. c #4D8323",
"*. c #4E832B",
"=. c #478125",
"-. c #538325",
";. c #53842C",
":. c #558A2C",
">. c #5B8C2C",
",. c #598828",
"<. c #5D9129",
"1. c #4E8336",
"2. c #558433",
"3. c #5A8533",
"4. c #568B32",
"5. c #5C8B33",
"6. c #5C8C3B",
"7. c #57843B",
"8. c #5D9132",
"9. c #618C2B",
"0. c #60842C",
"q. c #61922D",
"w. c #618E34",
"e. c #628C3A",
"r. c #639137",
"t. c #0D816D",
"y. c #14826A",
"u. c #0A8572",
"i. c #168675",
"p. c #1B947E",
"a. c #07977C",
"s. c #278A78",
"d. c #24917C",
"f. c #368A77",
"g. c #07805F",
"h. c #5A8746",
"j. c #598454",
"k. c #578A49",
"l. c #638A4B",
"z. c #668856",
"x. c #6A9359",
"c. c #629446",
"v. c #498A76",
"b. c #688B64",
"n. c #6B9467",
"m. c #739672",
"M. c #82A07E",
"N. c #1C9582",
"B. c #149B83",
"V. c #1A9A85",
"C. c #179786",
"Z. c #169787",
"A. c #298F81",
"S. c #229482",
"D. c #289A88",
"F. c #359787",
"G. c #318E84",
"H. c #1BA189",
"J. c #1CA593",
"K. c #29A18B",
"L. c #29A894",
"P. c #33AE98",
"I. c #38BBA6",
"U. c #4CB59B",
"Y. c #4AB8A7",
"T. c #53BAA5",
"R. c #4DBBB0",
"E. c #60998C",
"W. c #2CCCAD",
"Q. c #29CAAB",
"!. c #35C5AC",
"~. c #3AC5AC",
"^. c #33C9AD",
"/. c #3AC9A8",
"(. c #25D0AC",
"). c #2CCCB2",
"_. c #27CEB1",
"`. c #31C9B2",
"'. c #3AC9B3",
"]. c #2BD6B3",
"[. c #38D6B8",
"{. c #39D3AE",
"}. c #38C49E",
"|. c #47C4A9",
" X c #46CBB5",
".X c #45D5B8",
"XX c #54CDB0",
"oX c #67CDB2",
"OX c #3BDDC4",
"+X c #58DDC6",
"@X c #4ADDC6",
"#X c #69DAC9",
"$X c #74DACB",
"%X c #71DACE",
"&X c #4CEBCD",
"*X c #49E6CA",
"=X c #56E6CC",
"-X c #4CEDD1",
";X c #4AE4D3",
":X c #57E9D4",
">X c #4CF1D0",
",X c #6FE8D3",
"<X c #7DF9E3",
"1X c #8AD5CF",
"2X c #BAD8D3",
"3X c #8AEBDB",
"4X c #9BECDD",
"5X c #95EDDB",
"6X c #8BF2DE",
"7X c #85F4DE",
"8X c #97F2DE",
"9X c #A7E9DD",
"0X c #B7E9DD",
"qX c #A9F2DE",
"wX c #BEF1DE",
"eX c #85F4E2",
"rX c #8BF4E2",
"tX c #86F9E4",
"yX c #91F2E1",
"uX c #9CF5E3",
"iX c #9BF6EA",
"pX c #92F2E6",
"aX c #ACEEE3",
"sX c #B3EDE3",
"dX c #BBEDE3",
"fX c #B8EAE8",
"gX c #A3F4E4",
"hX c #AAF3E3",
"jX c #A6F8EA",
"kX c #B7F5E8",
"lX c #A9FEF7",
"zX c #BCFEF5",
"xX c #B7FEFA",
"cX c #BDEEF2",
"vX c #C4D1CD",
"bX c #C2D1D2",
"nX c #C4CFCA",
"mX c #CEEADB",
"MX c #C6E9E4",
"NX c #D9EAE4",
"BX c #C6F6EC",
"VX c #D5F4EC",
"CX c #C4FEF4",
"ZX c #CBFDF4",
"AX c #C9FBF8",
"SX c #D2FBF6",
"DX c #DDFEFE",
"FX c #D5FAF8",
"GX c #E4FFFD",
"HX c #ECFFFE",
"JX c #E9FCF5",
"KX c #F4FFFD",
"LX c #FBFEFD",
"PX c #F8FDF5",
"IX c #E2EFEC",
"UX c #90AD97",
/* pixels */
"5.5.5.;.e e q q C A H H F I ;.-.&.$.&.*.J I I U M M M M L L L G n *.2.;.-.%.,.:.4.7.;.b N N F 3.r.5.e.e.H C V j j F F J J F I ;.",
">.8.5.;.e e q q C A H H F I ;.-.&.&.-.G I 7.! ! ! ! ! W W W W R 1.h.k.h.7.6.6.h.l.7.2.b x U F I w.5.r.e.D w j j j H H F D F ;.2.",
"5.8.5.-.e 0 e q C Z A F F I 2.;.*.2.*.2.J ! x.  # o O O O O * * + * * * + o O o   n.6.D J C R 2.r.q.q.w.v w q w j H J J F F ;.I ",
">.5.5.;.v v D C Z C Z Z C F J J W K ;.J W ! m.< , 1 - ; = = 1 1 1 1 1 1 1 , , - d n.7.D G J H 7.5.q.q.q.n b b F Z C A A K D I I ",
":.:.:.;.;.;.2.2.F x z z z q x w w e ,.:.e.7.m.$ , 4 : : : - 1 1 , , , 1 - , , * $ n.W F J ;.v ;.>.>.<.q.,.<.,.5.3.Z j j q q P ;.",
";.;.:.;.4.4.5.3.F x z z z z q 0 0 C 2.h.k.O.M.@ & & , , - - , & , , & & , , , & $ m.O.W Q H G -.>.<.,.<.<.q.9.w.e.C q q q 0 P I ",
":.;.:.*.4.;.;.;.F c 0 z z z z V S ~ l g ] ] m.2XnXvXvXbXbXbXbXbXvXvXbXbXbXvXvXvXnXm.` h h l I ,.>.<.>.<.<.q.,.>.e.x q q C q I I ",
";.;.:.*.4.;.:.;.n c 0 z z q j V ^ ~ # < - 1 @.KXPXLXLXLXLXKXLXKXLXLXLXLXKXKXKXLXLX@., , , $ F ,.>.8.>.>.,.<.,.9.5.c 0 0 q 0 W I ",
"G G G G ;.;.;.,.n b c Z C S A A Z ! $ * 1 5 @.PXPXPXLXLXLXLXLXLXLXLXLXLXLXPXPXLXLX@.5 - - . I 9.5.4.4.5.;.;.-.,.-.,.L U I I x F ",
"v v v G *.;.-.,.M b b F A T E E A ! f % 5 4 E.JXPXPXPXKXKXKXKXKXHXKXKXLXPXPXKXKXKX@.% a 2 8 h.;.2.7.7.2.J ;.-.G L >.>.w.w.3.x x ",
"D D v G -.;.-.-.n b b F A T Y Y Y b.  , 5 5 #.HXGXGXGXGXGXGXGXGXGXGXHXHXJXJXHXGXDXE._ ; u + j.h.h.k.h.k.R J J n %.>.9.q.r.5.x w ",
"D D D G ;.;.-.-.M L F F A 9 f f f +.JXIXJXJXMXMXdXdXsXdXdXdXdXdXdXdXMXmXmXVXSXAXAX1XU.XXT.oXd 7 7 7 7 h.Q R I ,.M >.>.>.w.>.x w ",
"D D D G ;.;.-.-.b b b H T   # X * ` JXLXLXKXVXdXaXhXhXqXqXqXqXqXqX0X0X0XMXBXZXAXCX1XoX|.XXoX> : O $ $ j.h.H J L n >.q.w.r.5.v w ",
"D D D J 3.4.>.>.,.,.3.7.h.. < < 4 #.KXLXPXJXVXsXjXjXgXgXqXqXgXgXqXqXdX0XwXBXCXxXlX%X|./..XXX2 3 * o . j.E K F v b >.r.w.w.w.F v ",
"C D D J 3.5.5.>.9.;.3.7.h.$ o * % ` KXLXPXKXFXaXgXiXgXgXgXgXiXiXuXgXfXfXkXCXCXxXlX,X.X[.{.|.i 3 : < $ j.T D D c m 4.w.5.5.e.J G ",
"Z Z D J 3.5.>.3.c.h.l.z.b.h f ` ` #.JXJXJXJXSXaXjXjXjXgXgXgXiXiXjXkXcXcXkXlXlXlXlX,X[.{.[.XXi 3 : * . j.T D D v m >.r.r.6.6.G G ",
"A Z C J 3.5.3.h.h @ o * * HXKXLXKXKXVXFXVXZXBXsXjXuXuXuXgXgXgXhXZXGXGXDXjX$X#X#X=X:X&X>X*X+X( = - X # j.T K q D c >.e.6.c.6.G G ",
"Z Z Z J 3.5.3.h.g : - - , HXLXLXLXHXVXSXBXZXBXsXhXuXuXiXgXgXgXsXGXKXKXGXjX#X+X:X:X-X-X>X&X=X2 = 4 * $ j.R r K w m >.e.6.c.6.G n ",
"z z q x v v x Y g - - : , HXLXLXLXHXVXSXZXZXBX0XqXgXuXuXgXgXgXsXHXLXKXGXjX#X=X:X-X-X*X*X&X,X2 4 - * . E R *.=.&.$.%.G G G G m n ",
"z z w x v b C A g - - : , HXLXLXLXHXVXZXZXCXBXdXqXhXgXgXhXhXaXsXHXLXKXGXjX$X#X=X=X&X&X>X&X=Xu 2 2 a O O.R 1.1.*.-.n G J G G n m ",
"q q e w C F C Y g * - - , HXKXLXLXHXBXBXkXBXBXSXBXZXCXkXkXkXkXBXGXGXGXDXzX4X3X3X<X,X:X-X&X=Xt.{ { ' ] m.m.n.n.h.;.M U I I P H F ",
"w x w x Z Z Z Y g * * * , HXKXLXLXHXdXsXsXsXBXGXGXGXDXZXZXZXSXSXSXVXVXFXCXzXzXxXlX,X=X*X&X&X'.'..X XT.a + X 7 n.7.U F U H H P P ",
"q w w x A A A Y g * * * , HXKXKXKXGX0XqXqX0XBXHXHXKXGXFXSXZXSXSXSXSXFXZXCXCXCXCXxX3X=X*X&X-X[.[.].{.oX= d 4 X m.W U L I I I H K ",
"K J F F A Y S Y g * * - , GXHXHXKXGXdXhXhXsXBXGXHXHXGXSXCXZXZXZXZXZXZXCXCXCXCXCXxX3X=X=X&X&X[.].]..XT.p = - < b.A x c e w w w w ",
"R J F J l Y Y Y g * % & , DXGXGXGXVXdX0X9XdXBXDXGXDXFXZXCXzXCXCXCXCXCXCXzXzXzXxXlX,X=X=X=X*X[.[.[..XR.p = * * n.A e x 0 w x w w ",
"K R J T # # # # UXJXHXGXGXMX0XdX0XBXDXDXDXDXBX0X9X9X9X9X4X4X4X4X9X9X9X4X4X5X4X5X6XY.C.B.V.J.@X;X;X:X#X2 > < O n.R w w q 0 x x x ",
"K J H T $ @ @ @ mXHXHXHXGX2XfXfXsXBXHXJXHXHXFX9X4X4X4X4X5X8XyXyX6X5X6X6X6X6X6X6XyXY.N.C.C.C.:X;X;X:X%X( 4 < o n.H e w x z V V B ",
"R H D E o < * * NXJXKXKXGXMXsXaXaXdXKXLXLXKXSX4X5X6X5X5X6X6X7X7X6X6X6X6X7X7X6X6XyXY.S.N.S.i.:X*X-X:X%X2 = < < n.H w w C C C V S ",
"H F D Q X - % & mXLXLXKXHX0XsXgXhXdXHXLXLXHXZX4XyXrXyXyXyXrXrXrXrXrXrXrXrXtXtXtXyXY.N.p.S.N.=X:X*X=X$Xp 2 : < m.Q D w w w k Z A ",
"C C D Q o 1 , , NXLXPXKXGXdXzXuXjXkXHXLXLXHXAXuXyX6XrXrXrXrXrXrXeX6X6X6XeXeX<XeXrXY.S.C.N.V.@X=X&X=X#Xs u u = E.j.E S k R k C C ",
"F b v E * 1 - & NXLXLXLXJX0X5XjX4XhXSXVXVXZXkX5XyXyXrXrXrXeXeXeXrXrXyXyXrXrXeXrXpXY.S.C.B.B.&X>X&X&X*X.X X X#X' > @ $ 6 ~ A Z F ",
"F v v R * 1 - , IXLXLXLXHXdXhX8XgXhXBXSXSXCXgXuXrX6XrXrXrXrXrXrXrXrXrXrXrXrXrXrXpXT.S.C.B.a.>X*X&X&X-X[.[.[. X} i 4 & 6 O.A Z x ",
"&.-.*.h.o - , & IXLXLXPXHX0XhX4XjXqXCXSXFXAXlXyXrXrXrXrXrXrXrXrXrXrXrXrXrXrXrXrXyXT.S.S.C.H.:X*X&X&X-X[.[.{.XX .i 3 - # h.I F F ",
">.5.4.k.O : 4 , NXPXLXLXHXMXsXhX4XjXzXzXCXzXlXyXrXrXrXrXrXrXrXrXrXrXrXrXrXrXrXrXrXY.d.p.i.p.+X:X=X=X:X[.{. XXX .2 3 1 O l.3.;.! ",
"4.4.4.k.O - - & NXLXLXLXHXMXkXkXkXjX$X$X$X$X,XpXyXyXyXyXyXrXrXrXrXrXrXrXrXrXrXrXpXY.S.D.N.C.L.L.L.L.L.J.H.S.F._ 2 3 1 @ l.5.;.2.",
"5.e.3.k.* - 1 , NXLXPXLXKXFXZXZXAXhXT.~.{./.XXeXrXyXyXyX6X6X7X7X6X6X6X6XeXeXrXrXrXY.p.C.C.N.u.{ | } [ u.t.{  .) 2 3 1 @ l.:.L ;.",
"3.3.;.k.* 1 1 1 NXLXPXLXKXFXZXCXAXlX|.Q.W.^.XXeXrXrXrXrXrXrXeXeXrXyXrXrXrXrXrXrXeXY.N.N.C.p.{ } | | } }  . . .) 3 3 1 * l.;.L ;.",
"x x v Q * 1 1 1 NXLXPXKXHXFXAXCXzXjX XW.].^.+XtXeXeXeXeXrXeX7X7X6X6X6X7XeXeXeXeXtXI.p.B.V.N.[ .. .} y.} y.| X._ 3 3 1 * h.J G G ",
"e 0 e E * 1 4 4 NXKXPXKXHXBXzXxXxXpX~.Q.Q.!.+X<X<X<XtXtXrXrXtXtXtXtXtXtXtXtXrXrXeXY.V.B.C.N.} } t.{ u.{ y.'  .) 2 = 3 * E D F b ",
"w q e E * 4 4 5 NXPXLXKXDX1X1X$X%X,X@X*X&X*X~.L.K.K.K.D.F.F.K.K.K.K.K.K.K.K.D.D.L.P.I.I.I.I.Y.Y.I.I.I.p.p.s.f.) i = 1 * o.F I P ",
"q q w A < 1 5 4 NXLXJXHXFX1X$X#X=X&X-X*X-X-X^.B.C.N.S.A.A.d.p.p.d.d.d.p.S.S.S.S.S.L.'.'.W.`.!.`.!.'.!.V.p.d.f.) 2 3 4 * E H P F ",
"j 0 w T @ , , & NXKXKXHXAX$X#X=X-X*X-X-X-X&X^.B.C.S.A.A.A.S.N.p.S.d.S.S.S.S.S.S.N.P.~.Q.Q.W.W.).[.`.!.p.p.d.s._ ; > , @ O.A P P ",
"J J J h.$ @ @ @ NXKXHXFXCX%X=X:X-X>X-X&X*X:X'.B.N.S.S.S.N.C.C.C.N.N.N.N.N.N.N.N.C.P.~.^.`._.(._.Q.!. XN.d.F.f._ y + * # l.P H C ",
"J J I 7.7 # # 6 mXJXGXSXCX#X:X-X*X-X=X+X+X+X~.B.V.N.N.V.B.B.B.B.B.V.V.V.V.V.V.V.H.P.I.~.!.Q._.(.[.'.I.d.X.X.v.d 8 8 # 7 h.I Z C ",
"G G G 2.Q h.O.O.h & , 3 2 %X=X-X>X[.u.{ t.u.V.!.~.~.!.^.W.W.`.!.^.W.^.!.!.!.^.!.!.V.u.[ { u./.{.!.~.R.( ( a > v.l o.o.Y ! F x H ",
"G G G G 6.6.7.h.f & , a p oX:X;X&X X[ | i.[ B.~.!.!.W.W._.).`.`.).W.W.W.W.W.W.W.'.V.[ ..{ [ ~.~.{.|.U.p ; > : +.9 R ! P L L x H ",
"b n n G ;.;.;.7.g < : = p #X=X&X&X.Xt. .| } H.!.W.W.W.W.W.).).`.W.W.^.^.W.W.(.W.`.V.[ i.y.t.~.^.}./.T.p ; ; * j.k P P U M M x r ",
"9.9.>.>.&.;.-.R g % 4 2 p #X:X&X&X X} | | [ H.Q.W.W.W.W.).).).).).^.^.^.W.W.(.(.Q.H.[ } ..[ ~.^./.I.T.p 2 : o b.W U U U M n F G ",
"9.>.5.>.&.&.;.W g , 4 2 p #X=X;X*X X} | | } V./.^.W.W.W.W.).).).W.W.^.^.W.W.(.W.Q.H.[  .i.{ I.I.I.P.Y.i 2 - @ b.! I U U U J F J ",
"9.9.5.4.&.&.;.Q f 4 % 2 s XX'.OX[.~.[ | | } V.~.^.W.W.W.W.).).).W.W.W.^.W.W.(.W.^.V.y.| } } C.B.D.d.G.( = : $ n.! P P P I J J J ",
"9.9.5.:.$.$.&.Q h % d 2 p XX|..X{./.{ y.} t.Z.`.`.).).W.W.W.).).).).`.`.`.).).).'.N.[ |  .} S.D.i.G.F.; a < $ n.! P P H J F F F ",
"0.,.3.;.&.&.;.Q g , - a > oX|.|.XX}.g.y.t.u.Z.`.`.).).).).W.W.).).).`.`.).).).).~.D.} .... .F.s.F.f.X.u y + . x.! P H F J F I P ",
"c x x D =.&.&.R h X o > > oXoXT.|.U.i.t.[ u.J.[.).).).).).).W.W._.).).`.).).).W.~.D.[ } | | f.f.s.G.f.+ O   7 l.V q q e 0 e P P ",
"z z j K *.:.*.;.Q O.o.j.] + u s s ) y.N.N.Z.J.`.).).).).).).W.(.(.(.).`.).).).W.'.K.N.S.d.s.( i ( ; y +.l E S S V q q 0 q 0 ! ! ",
"V V k K *.*.&.&.G 2.R o.] y u u 2 ( A.S.N.N.L.~.^.W.W.W.W.W.W.(.(.(.W.).)._._.).'.L.Z.C.N.F.2 2 = ; y +.l k S V S j q 0 0 0 W ! ",
"V C k K *.*.$.%.-.m I J E + > 2 2 i G.S.N.V.L.~./.Q.W.W.W.W.W.W.W.W.^.`.).).W.^.'.L.Z.Z.D.d.u 2 : *   o.R q j C C q q q x 0 3.! ",
"V j k C *.*.&.%.%.%.M I W . o - > a s.F.N.p.P.|././.^.^.`.`.`.^.^./.~.~.^.^.^./.|.L.C.C.p.s.y > * # . W I F F H J q q q 0 w ! ! ",
"z q j C 2.;.-.%.%.,.,.3.W 7 $ . # y v.s.F.G.F.T.T.|.Y.R.R.R.|.|.|.|.T.R.R.|.|.|.U.F.d.d.s.f.+ O $ # $ H J ;.3.3.7.C C C x x I H ",
"q q q x ;.;.-.-.-.-.I I 3.! h.h.O.x.8 a ; 2 u u u u i i i i u u u i 2 2 i i u u u u ; p y + O.~ o.E A 3.;.5.5.;.3.x w w w x F F ",
"q q q x ;.,.,.;.3.3.3.I 2.5.5.3.! x.  > = 2 ; : = ; 2 2 2 2 = - 3 3 3 3 3 2 = = : % = = + # ~ ! T T H F G >.>.;.3.v w w x x J -.",
"q q w x ;.;.;.;.I W 2.2.;.5.,.,.c.k.7 + 2 3 = ; : : 3 3 3 3 : , : 1 1 4 4 1 : , < 4 % : + . O.A J H H D -.5.:.:.;.v w w w e G G ",
"w q x x P F F F H C C x w G &.-.*.7.. O > : : + o O : : * * @ @ o o * - - * o @ @ X < < o . h.W v x D D *.4.:.8.4.*.;.J ;.J ,.:.",
"C C x z Z x x x x w w w r D &.G &.4.x.n.m.n.n.x.x.x.x.x.x.x.x.x.x.l.j.z.z.z.l.O.z.z.+.b.b.x.F m m m w v *.4.*.-.:.;.4.2.3.2.5.:.",
"C C C x H Z Z Z x w w w w r *.m $.r l.l.z.l.l.e.e.e.e.6.7.W ! I I H A Y E ~ S ^ S B o.O.O.Q G $.t m e D *.4.4.:.>.:.3.2.6.4.4.:."
};
