/* XPM */
static char *e31546a5b63f4c6ca5993745803c4851SSkjiRsfsPwDP3Ua[] = {
/* columns rows colors chars-per-pixel */
"64 64 144 2 ",
"   c #D0332E",
".  c #DE312F",
"X  c #CF3A35",
"o  c #CD3639",
"O  c #C9383F",
"+  c #D43535",
"@  c #DB3232",
"#  c #D3363A",
"$  c #DA353A",
"%  c #D43839",
"&  c #E92526",
"*  c #EB2729",
"=  c #E62E2D",
"-  c #EB2B2C",
";  c #F72727",
":  c #F92626",
">  c #F42925",
",  c #F92926",
"<  c #F62629",
"1  c #F92629",
"2  c #F4292A",
"3  c #F92929",
"4  c #E1312D",
"5  c #E42F32",
"6  c #EB2C31",
"7  c #E13031",
"8  c #E93231",
"9  c #C6403F",
"0  c #C33D44",
"q  c #C83D42",
"w  c #B74346",
"e  c #DF494B",
"r  c #CE5D5B",
"t  c #D95352",
"y  c #D25759",
"u  c #D25C5D",
"i  c #F45C5B",
"p  c #CF5C61",
"a  c #D05D62",
"s  c #DC7D7B",
"d  c #FF686B",
"f  c #EB7A74",
"g  c #E27D7B",
"h  c #FF7674",
"j  c #E57A80",
"k  c #D98384",
"l  c #FF8587",
"z  c #FC8E8F",
"x  c #EE9494",
"c  c #E3999A",
"v  c #F29292",
"b  c #FF9394",
"n  c #FF9299",
"m  c #F79B9D",
"M  c #FD9B9C",
"N  c #EC9DA0",
"B  c #FFA2A3",
"V  c #FFA5A9",
"C  c #FFAAAC",
"Z  c #FFB5B5",
"A  c #FFB9B6",
"S  c #FFB6BB",
"D  c #FFB9B9",
"F  c #FAC0BF",
"G  c #FFBCC0",
"H  c #FFC1C2",
"J  c #FFC8CC",
"K  c #FFD0CF",
"L  c #FFCFD2",
"P  c #FFD1D4",
"I  c #FFD5D6",
"U  c #FFD6D7",
"Y  c #FFD2D3",
"T  c #FFD8D7",
"R  c #FFD7D8",
"E  c #FFD5DB",
"W  c #FFD7DC",
"Q  c #FFD8D9",
"!  c #FFD8DD",
"~  c #FFE1DE",
"^  c #FFE4E5",
"/  c #FFE9E7",
"(  c #FFE9E4",
")  c #FFE9E9",
"_  c #FFEBE9",
"`  c #FFE8EC",
"'  c #FFEAEC",
"]  c #FFEBED",
"[  c #FFECEC",
"{  c #FFECED",
"}  c #FFEDEC",
"|  c #FFEFED",
" . c #FFEDEC",
".. c #FFF1EE",
"X. c #FFF2ED",
"o. c #FFEFF2",
"O. c #FFEEF3",
"+. c #FFEEF2",
"@. c #FFF3F1",
"#. c #FFF1F2",
"$. c #FFF0F3",
"%. c #FFF1F3",
"&. c #FFF3F3",
"*. c #FFF6F1",
"=. c #FFF4F2",
"-. c #FFF4F3",
";. c #FFF7F3",
":. c #FFF2F4",
">. c #FFF3F5",
",. c #FFF3F6",
"<. c #FFF3F7",
"1. c #FFF5F4",
"2. c #FFF4F5",
"3. c #FFF5F5",
"4. c #FFF6F4",
"5. c #FFF5F6",
"6. c #FFF6F6",
"7. c #FFF7F6",
"8. c #FFF2F3",
"9. c #FFF8F1",
"0. c #FFF8F3",
"q. c #FFFAF4",
"w. c #FFF8F6",
"e. c #FFFAF6",
"r. c #FFF9F5",
"t. c #FFF3F9",
"y. c #FFF5F8",
"u. c #FFF4F9",
"i. c #FFF7F8",
"p. c #FFF5FA",
"a. c #FFF7FA",
"s. c #FFF6FB",
"d. c #FFF7FB",
"f. c #FFF8F8",
"g. c #FFF9F9",
"h. c #FFF9FA",
"j. c snow",
"k. c #FFFAFB",
"l. c #FFFCF9",
"z. c #FFF8FD",
"x. c #FFF9FD",
"c. c #FFFBFF",
"v. c #FFFCFF",
"b. c #FFFAFB",
/* pixels */
"; ; ; ; ; ; ; ; ; ; ; ; ; ; ; ; ; ; ; ; ; ; ; ; ; ; ; ; ; ; ; ; ; ; ; ; ; ; ; ; ; ; ; ; ; ; ; ; ; ; ; ; ; ; ; ; ; ; ; ; ; ; ; ; ",
"; ; ; ; ; ; ; ; ; ; ; ; ; ; ; ; ; ; ; ; ; ; ; ; ; ; ; ; ; ; ; ; ; ; ; ; ; ; ; ; ; ; ; ; ; ; ; ; ; ; ; ; ; ; ; ; ; ; ; ; ; ; ; ; ",
"; ; ; ; ; ; ; ; ; ; ; ; ; ; ; ; ; ; ; ; ; ; ; ; ; ; ; ; ; ; ; ; ; ; ; ; ; ; ; ; ; ; ; ; ; ; ; ; ; ; ; ; ; ; ; ; ; ; ; ; ; ; ; ; ",
"; ; ; ; ; ; ; ; ; ; ; ; ; ; ; ; ; ; ; ; ; ; ; ; ; ; ; ; ; ; ; ; ; ; ; ; ; ; ; ; ; ; ; ; ; ; ; ; ; ; ; ; ; ; ; ; ; ; ; ; ; ; ; ; ",
"; ; ; ; ; ; ; ; ; ; ; ; ; ; ; ; ; ; ; ; ; ; ; ; ; ; ; ; ; ; ; ; ; ; ; ; ; ; ; ; ; ; ; ; ; ; ; ; ; ; ; ; ; ; ; ; ; ; ; ; ; ; ; ; ",
"; ; ; ; ; ; ; ; ; ; ; ; ; ; ; ; ; ; ; ; ; ; ; ; ; ; ; ; ; ; ; ; ; ; ; ; ; ; ; ; ; ; ; ; ; ; ; ; ; ; ; ; ; ; ; ; ; ; ; ; ; ; ; ; ",
"; ; ; ; ; ; ; ; ; ; ; ; ; ; ; ; ; ; ; ; ; ; ; ; ; ; ; ; ; ; ; ; ; ; ; ; ; ; ; ; ; ; ; ; ; ; ; ; ; ; ; ; ; ; ; ; ; ; ; ; ; ; ; ; ",
"; ; ; ; ; ; ; ; ; ; ; ; ; ; ; ; ; ; ; ; ; ; ; ; ; ; ; ; ; ; ; ; ; ; ; ; ; ; ; ; ; ; ; ; ; ; ; ; ; ; ; ; ; ; ; ; ; ; ; ; ; ; ; ; ",
"; ; ; ; ; ; ; ; ; ; ; ; ; ; ; ; ; ; ; ; ; ; ; ; ; ; ; ; ; ; ; ; ; ; ; ; ; ; ; ; ; ; ; ; ; ; ; ; ; ; ; ; ; ; ; ; ; ; ; ; ; ; ; ; ",
"; ; ; ; ; ; ; ; ; ; ; ; ; ; ; ; ; ; ; ; ; ; ; ; ; ; ; ; ; ; ; ; ; ; ; ; ; ; ; ; ; ; ; ; ; ; ; ; ; ; ; ; ; ; ; ; ; ; ; ; ; ; ; ; ",
"; ; ; ; ; ; ; ; ; ; ; ; ; ; ; ; ; ; ; ; ; ; ; ; ; ; ; ; ; ; ; ; ; ; ; ; ; ; ; ; ; ; ; ; ; ; ; ; ; ; ; ; ; ; ; ; ; ; ; ; ; ; ; ; ",
"; ; ; ; ; ; ; ; ; ; ; ; ; ; ; ; ; ; ; ; ; ; ; ; ; ; ; ; ; ; ; ; ; ; ; ; ; ; ; ; ; ; ; ; ; ; ; ; ; ; ; ; ; ; ; ; ; ; ; ; ; ; ; ; ",
"; ; ; ; ; ; ; ; ; ; ; ; ; ; ; ; ; ; ; ; ; ; ; ; ; ; ; ; ; ; ; ; ; ; ; ; ; ; ; ; ; ; ; ; ; ; ; ; ; ; ; ; ; ; ; ; ; ; ; ; ; ; ; ; ",
"; ; ; ; ; ; ; ; ; ; ; ; ; ; ; ; ; ; ; ; ; ; ; ; ; ; ; ; ; ; ; ; ; ; ; ; ; ; ; ; ; ; ; ; ; ; ; ; ; ; ; ; ; ; ; ; ; ; ; ; ; ; ; ; ",
"; ; ; ; ; ; ; ; ; ; ; ; ; ; ; ; ; ; ; ; ; ; ; ; ; ; ; ; ; ; ; ; ; ; ; ; ; ; ; ; ; ; ; ; ; ; ; ; ; ; ; ; ; ; ; ; ; ; ; ; ; ; ; ; ",
"; ; ; ; ; ; ; ; ; ; ; ; ; ; ; ; ; ; < < < ; ; ; ; ; ; ; ; ; ; ; ; ; ; ; ; ; ; ; ; ; ; ; ; ; < < ; ; ; ; ; ; ; ; ; ; ; ; ; ; ; ; ",
"; ; ; ; ; ; ; ; ; ; ; ; ; ; ; ; : ; < < < < ; ; ; ; : : , > 3 < ; ; > > ; ; < < : 3 : : : ; 2 2 < ; ; ; ; ; ; ; ; ; ; ; ; ; ; ; ",
"; ; ; ; ; ; ; ; ; ; ; ; ; ; ; ; : ; < < < 1 : > - 7 @ +   + + % + + + + + + + @ = - ; : : < < < ; ; ; ; ; ; ; ; ; ; ; ; ; ; ; ; ",
"; ; ; ; ; ; ; ; ; ; ; ; ; ; ; ; : : < < : : : - e J P I Q E E ! W E I I E E T K M @ - 3 ; ; : ; ; ; ; ; ; ; ; ; ; ; ; ; ; ; ; ; ",
"; ; ; ; ; ; ; ; ; ; ; ; ; ; ; : : : ; > : : : = u ` p.c.c.p.p.p.p.p.6.6.p.p.q.[ A % - ; 1 3 : , ; ; ; ; ; ; ; ; ; ; ; ; ; ; ; ; ",
"; ; ; ; ; ; ; ; ; ; ; ; ; ; ; : : : > > > > : 4 u [ c.v.p.,.$.$.o.o.....$.$.$.[ S @ * 3 3 > ; ; ; ; ; ; ; ; ; ; ; ; ; ; ; ; ; ; ",
"; ; ; ; ; ; ; ; ; ; ; ; ; ; ; : : : > > > > > 4 u [ 6.f.L c x v v v v v x x x z d 7 2 ; 3 > 3 3 ; ; ; ; ; ; ; ; ; ; ; ; ; ; ; ; ",
"; ; ; ; ; ; ; ; ; ; ; ; ; ; ; ; : : ; ; < < ; 4 y ` f.$.m 9 + @ @ @ . . @ @ @ @ = - 3 : : ; ; > < ; ; ; ; ; ; ; ; ; ; ; ; ; ; ; ",
"; ; ; ; ; ; ; ; ; ; ; ; ; ; ; ; ; ; ; < < < < 7 u ` 6.-.b + - : > > ; ; : : < 3 3 > : : : 1 < 3 < ; ; ; ; ; ; ; ; ; ; ; ; ; ; ; ",
"; ; ; ; ; ; ; ; ; ; ; ; ; ; ; ; ; ; ; ; 3 < ; 5 u ` f.6.b @ 2 : ; ; > ; ; : 1 < > > , : : : 2 2 < ; ; ; ; ; ; ; ; ; ; ; ; ; ; ; ",
"; ; ; ; ; ; ; ; ; ; ; ; ; ; ; ; ; ; ; > ; ; ; 5 u [ f.6.M o 4 - - = = = - - 6 - 2 > : : : , 3 3 ; ; ; ; ; ; ; ; ; ; ; ; ; ; ; ; ",
"; ; ; ; ; ; ; ; ; ; ; ; ; ; ; ; ; ; < ; : : : 4 u [ f.,.N w O # % X X X # # # % 5 & , , ; ; ; ; ; ; ; ; ; ; ; ; ; ; ; ; ; ; ; ; ",
"; ; ; ; ; ; ; ; ; ; ; ; ; ; ; ; : : 1 : : : : 4 r / 6.f.^ H G S D D A A S S S Z l 8 > : ; 3 : : ; ; ; ; ; ; ; ; ; ; ; ; ; ; ; ; ",
"; ; ; ; ; ; ; ; ; ; ; ; ; ; ; ; : : ; : : : : 7 u [ f.l.q.0.-.6.p.p.6.6.p.p.6.[ A + * 3 : ; : , ; ; ; ; ; ; ; ; ; ; ; ; ; ; ; ; ",
"; ; ; ; ; ; ; ; ; ; ; ; ; ; ; ; : : < ; : : 1 5 u [ q.l.q.0.-.$.,.t.,.-.6.6.-.[ A + - ; ; , : : ; ; ; ; ; ; ; ; ; ; ; ; ; ; ; ; ",
"; ; ; ; ; ; ; ; ; ; ; ; ; ; ; ; ; < 3 > > : 1 5 a ` q.q.Y C V B B B B B B B B M h 5 - 3 3 ; ; 1 ; ; ; ; ; ; ; ; ; ; ; ; ; ; ; ; ",
"; ; ; ; ; ; ; ; ; ; ; ; ; ; ; ; < < 3 > > > < 5 p ` q.X.m 0 o % + + @ @ + + @ @ = - 2 > > ; 1 1 < ; ; ; ; ; ; ; ; ; ; ; ; ; ; ; ",
"; ; ; ; ; ; ; ; ; ; ; ; ; ; ; ; : ; ; > ; ; > @ u ` 6.$.b + = * = - - - - - - - 2 3 3 > ; ; > 3 < ; ; ; ; ; ; ; ; ; ; ; ; ; ; ; ",
"; ; ; ; ; ; ; ; ; ; ; ; ; ; ; ; : ; ; > ; ; > @ u ` f...b @ - > > > ; ; ; ; ; ; : : > > 3 ; 3 > ; ; ; ; ; ; ; ; ; ; ; ; ; ; ; ; ",
"; ; ; ; ; ; ; ; ; ; ; ; ; ; ; ; : ; ; > > ; ; 7 p o.f.$.b @ * > 3 3 1 1 3 3 3 3 1 3 ; ; ; : , ; ; ; ; ; ; ; ; ; ; ; ; ; ; ; ; ; ",
"; ; ; ; ; ; ; ; ; ; ; ; ; ; ; ; < ; ; : ; ; : 5 a +.f.,.n @ * 3 : : : : > > ; ; ; : 1 : : , ; ; ; ; ; ; ; ; ; ; ; ; ; ; ; ; ; ; ",
"; ; ; ; ; ; ; ; ; ; ; ; ; ; ; < < < ; : : : : 5 u [ f.$.n $ 6 < : : : : : : < < 1 : : 3 ; ; > > ; ; ; ; ; ; ; ; ; ; ; ; ; ; ; ; ",
"; ; ; ; ; ; ; ; ; ; ; ; ; ; ; < 3 3 ; : : : : 5 u [ f.6.m q # @ 4 4 . @ 7 7 @ 7 - 2 < : ; ; 3 ; ; ; ; ; ; ; ; ; ; ; ; ; ; ; ; ; ",
"; ; ; ; ; ; ; ; ; ; ; ; ; ; ; < 2 2 1 : : : : 5 u _ q.q.F k s g g g g g j g g f i = - > 3 3 1 1 ; ; ; ; ; ; ; ; ; ; ; ; ; ; ; ; ",
"; ; ; ; ; ; ; ; ; ; ; ; ; ; ; < 3 3 1 : ; ; < 5 r _ q.l.6.$.........$.O.O.o...( Z + - 2 ; : 1 : : ; ; ; ; ; ; ; ; ; ; ; ; ; ; ; ",
"; ; ; ; ; ; ; ; ; ; ; ; ; ; ; ; ; ; : : : < 2 @ r _ q.l.q.f.q.f.f.c.c.c.c.c.q.X.A # = 2 , : : 3 ; ; ; ; ; ; ; ; ; ; ; ; ; ; ; ; ",
"; ; ; ; ; ; ; ; ; ; ; ; ; ; ; ; > : : : : < 2 5 t ~ / [ [ [ $.o.o.$.,.,.O.o...( C + - 2 : : , > ; ; ; ; ; ; ; ; ; ; ; ; ; ; ; ; ",
"; ; ; ; ; ; ; ; ; ; ; ; ; ; ; ; ; : : : : : 1 2 8 @ $ % + % + % + + + + + + + @ 5 - 3 > , ; , > ; ; ; ; ; ; ; ; ; ; ; ; ; ; ; ; ",
"; ; ; ; ; ; ; ; ; ; ; ; ; ; ; ; ; : : : ; : : : < < < > > ; : : : : : : : : : ; 3 ; ; ; ; , ; : ; ; ; ; ; ; ; ; ; ; ; ; ; ; ; ; ",
"; ; ; ; ; ; ; ; ; ; ; ; ; ; ; ; ; ; : : ; : 1 1 ; ; , 3 ; 3 : : ; ; : : ; ; ; ; ; 3 3 > > 3 : ; ; ; ; ; ; ; ; ; ; ; ; ; ; ; ; ; ",
"; ; ; ; ; ; ; ; ; ; ; ; ; ; ; ; ; ; ; ; > ; : 1 3 3 > : : ; > > > ; : : ; > ; ; 3 3 > 3 ; : : : ; ; ; ; ; ; ; ; ; ; ; ; ; ; ; ; ",
"; ; ; ; ; ; ; ; ; ; ; ; ; ; ; ; 1 < ; > > > : : ; ; > > ; 3 ; ; > > 1 1 < < < 3 1 ; ; > : 3 ; < ; ; ; ; ; ; ; ; ; ; ; ; ; ; ; ; ",
"; ; ; ; ; ; ; ; ; ; ; ; ; ; ; < 1 < < > > > ; : ; ; ; 3 3 ; ; 3 ; ; 1 1 < < < < : 3 ; 3 1 : 1 > ; ; ; ; ; ; ; ; ; ; ; ; ; ; ; ; ",
"; ; ; ; ; ; ; ; ; ; ; ; ; ; ; ; < < ; ; ; ; ; ; ; ; ; ; ; ; ; ; ; ; ; ; ; ; ; ; : ; ; ; : : ; ; ; ; ; ; ; ; ; ; ; ; ; ; ; ; ; ; ",
"; ; ; ; ; ; ; ; ; ; ; ; ; ; ; ; ; ; ; ; ; ; ; ; ; ; ; ; ; ; ; ; ; ; ; ; ; ; ; ; ; ; ; ; ; ; ; ; ; ; ; ; ; ; ; ; ; ; ; ; ; ; ; ; ",
"; ; ; ; ; ; ; ; ; ; ; ; ; ; ; ; ; ; ; ; ; ; ; ; ; ; ; ; ; ; ; ; ; ; ; ; ; ; ; ; ; ; ; ; ; ; ; ; ; ; ; ; ; ; ; ; ; ; ; ; ; ; ; ; ",
"; ; ; ; ; ; ; ; ; ; ; ; ; ; ; ; ; ; ; ; ; ; ; ; ; ; ; ; ; ; ; ; ; ; ; ; ; ; ; ; ; ; ; ; ; ; ; ; ; ; ; ; ; ; ; ; ; ; ; ; ; ; ; ; ",
"; ; ; ; ; ; ; ; ; ; ; ; ; ; ; ; ; ; ; ; ; ; ; ; ; ; ; ; ; ; ; ; ; ; ; ; ; ; ; ; ; ; ; ; ; ; ; ; ; ; ; ; ; ; ; ; ; ; ; ; ; ; ; ; ",
"; ; ; ; ; ; ; ; ; ; ; ; ; ; ; ; ; ; ; ; ; ; ; ; ; ; ; ; ; ; ; ; ; ; ; ; ; ; ; ; ; ; ; ; ; ; ; ; ; ; ; ; ; ; ; ; ; ; ; ; ; ; ; ; ",
"; ; ; ; ; ; ; ; ; ; ; ; ; ; ; ; ; ; ; ; ; ; ; ; ; ; ; ; ; ; ; ; ; ; ; ; ; ; ; ; ; ; ; ; ; ; ; ; ; ; ; ; ; ; ; ; ; ; ; ; ; ; ; ; ",
"; ; ; ; ; ; ; ; ; ; ; ; ; ; ; ; ; ; ; ; ; ; ; ; ; ; ; ; ; ; ; ; ; ; ; ; ; ; ; ; ; ; ; ; ; ; ; ; ; ; ; ; ; ; ; ; ; ; ; ; ; ; ; ; ",
"; ; ; ; ; ; ; ; ; ; ; ; ; ; ; ; ; ; ; ; ; ; ; ; ; ; ; ; ; ; ; ; ; ; ; ; ; ; ; ; ; ; ; ; ; ; ; ; ; ; ; ; ; ; ; ; ; ; ; ; ; ; ; ; ",
"; ; ; ; ; ; ; ; ; ; ; ; ; ; ; ; ; ; ; ; ; ; ; ; ; ; ; ; ; ; ; ; ; ; ; ; ; ; ; ; ; ; ; ; ; ; ; ; ; ; ; ; ; ; ; ; ; ; ; ; ; ; ; ; ",
"; ; ; ; ; ; ; ; ; ; ; ; ; ; ; ; ; ; ; ; ; ; ; ; ; ; ; ; ; ; ; ; ; ; ; ; ; ; ; ; ; ; ; ; ; ; ; ; ; ; ; ; ; ; ; ; ; ; ; ; ; ; ; ; ",
"; ; ; ; ; ; ; ; ; ; ; ; ; ; ; ; ; ; ; ; ; ; ; ; ; ; ; ; ; ; ; ; ; ; ; ; ; ; ; ; ; ; ; ; ; ; ; ; ; ; ; ; ; ; ; ; ; ; ; ; ; ; ; ; ",
"; ; ; ; ; ; ; ; ; ; ; ; ; ; ; ; ; ; ; ; ; ; ; ; ; ; ; ; ; ; ; ; ; ; ; ; ; ; ; ; ; ; ; ; ; ; ; ; ; ; ; ; ; ; ; ; ; ; ; ; ; ; ; ; ",
"; ; ; ; ; ; ; ; ; ; ; ; ; ; ; ; ; ; ; ; ; ; ; ; ; ; ; ; ; ; ; ; ; ; ; ; ; ; ; ; ; ; ; ; ; ; ; ; ; ; ; ; ; ; ; ; ; ; ; ; ; ; ; ; ",
"; ; ; ; ; ; ; ; ; ; ; ; ; ; ; ; ; ; ; ; ; ; ; ; ; ; ; ; ; ; ; ; ; ; ; ; ; ; ; ; ; ; ; ; ; ; ; ; ; ; ; ; ; ; ; ; ; ; ; ; ; ; ; ; ",
"; ; ; ; ; ; ; ; ; ; ; ; ; ; ; ; ; ; ; ; ; ; ; ; ; ; ; ; ; ; ; ; ; ; ; ; ; ; ; ; ; ; ; ; ; ; ; ; ; ; ; ; ; ; ; ; ; ; ; ; ; ; ; ; "
};
