/* XPM */
static char *cf9ea5abe93f42fbd956c0d5432e616dtMoFpmUNDkHJLqT5[] = {
/* columns rows colors chars-per-pixel */
"64 64 138 2 ",
"   c #DF9E7C",
".  c #EC9C6E",
"X  c #E69B75",
"o  c #EC9D76",
"O  c #E59D7C",
"+  c #EB9D79",
"@  c #F09C75",
"#  c #F19D79",
"$  c #DFA07F",
"%  c #EEA076",
"&  c #E4A17D",
"*  c #EAA07A",
"=  c #D59F87",
"-  c #DD9F84",
";  c #E39F82",
":  c #DDA285",
">  c #DDA389",
",  c #DCA98E",
"<  c #DBA490",
"1  c #DBA993",
"2  c #E3A183",
"3  c #ECA181",
"4  c #E1A488",
"5  c #ECAB8D",
"6  c #E0A692",
"7  c #E3AE94",
"8  c #E9AF97",
"9  c #E6B394",
"0  c #E9B195",
"q  c #E5B29A",
"w  c #EAB199",
"e  c #E9BC9F",
"r  c #EBBBA7",
"t  c #E7BEA8",
"y  c #E9BDAB",
"u  c #E7C1AC",
"i  c #EAC1AD",
"p  c #F3C5AE",
"a  c #E4C5B4",
"s  c #EDC3B0",
"d  c #EACEB9",
"f  c #F1C7B7",
"g  c #F3CAB4",
"h  c #F4CDBA",
"j  c #EED1BF",
"k  c #F3D1BE",
"l  c #FFD2BE",
"z  c #EFCDC1",
"x  c #F3CFC1",
"c  c #ECD5C5",
"v  c #F4D4C5",
"b  c #F3D1C2",
"n  c #F8D1C2",
"m  c #FFD6C4",
"M  c #FFD5CC",
"N  c #FCDFCD",
"B  c #FEE2CC",
"V  c #FFE0CE",
"C  c #FFE6CF",
"Z  c #FFE5D6",
"A  c #FFE1D0",
"S  c #FFE9D4",
"D  c #F5E3D9",
"F  c #FFEAD9",
"G  c #FFEDDB",
"H  c #FFEADD",
"J  c #FFEADE",
"K  c #FFEEDE",
"L  c #FFECDD",
"P  c #F7EAE2",
"I  c #FFEFE2",
"U  c #FFEFE4",
"Y  c #FFF1E2",
"T  c #FFF2E5",
"R  c #FFF1E6",
"E  c #FFF7E4",
"W  c #FFF6E8",
"Q  c #FFF2EA",
"!  c #FFF8E8",
"~  c #FFFAEB",
"^  c #FFFDEB",
"/  c #FFF8ED",
"(  c #FFF9ED",
")  c #FFF9EF",
"_  c #FFFBEE",
"`  c #FFFDEC",
"'  c #FFFCEE",
"]  c #FFFCEF",
"[  c #FFFEEF",
"{  c #FFFAED",
"}  c #FFF6F5",
"|  c #FFF9F0",
" . c #FFF8F1",
".. c #FFF9F1",
"X. c #FFFAF1",
"o. c #FFFBF1",
"O. c #FFF8F2",
"+. c #FFFAF2",
"@. c #FFFAF3",
"#. c #FFFCF1",
"$. c #FFFDF1",
"%. c #FFFCF2",
"&. c #FFFCF3",
"*. c #FFFDF3",
"=. c #FFFAF4",
"-. c #FFFBF4",
";. c #FFFBF5",
":. c #FFFAF6",
">. c #FFFCF4",
",. c #FFFDF4",
"<. c #FFFEF4",
"1. c #FFFFF4",
"2. c #FFFCF6",
"3. c #FFFDF7",
"4. c #FFFEF6",
"5. c #FFFFF6",
"6. c #FFFBF4",
"7. c #FFF9F9",
"8. c #FFFBF8",
"9. c #FFFBFB",
"0. c #FFFCF8",
"q. c #FFFDF8",
"w. c #FFFCF9",
"e. c #FFFEF8",
"r. c #FFFFF8",
"t. c #FDFDFB",
"y. c #FFFCFA",
"u. c #FFFEFA",
"i. c #FFFFFA",
"p. c #FFFEFB",
"a. c #FEFCFD",
"s. c #FFFCFD",
"d. c #FFFDFD",
"f. c #FFFEFD",
"g. c #FFFFFD",
"h. c #FFFCFF",
"j. c #FFFDFF",
"k. c #FFFDFC",
/* pixels */
"o o o o o o o o o o o o o o o o o o o o o o o o o o o o o o o o o o o o o o o o o o o o o o o o o o o o o o o o o o o o o o o o ",
"o o o o o o o o o o o o o o o o o o o o o o o o o o o o o o o o o o o o o o o o o o o o o o o o o o o o o o o o o o o o o o o o ",
"o o o o o o o o o o o o o o o o o o o o o o o o o o o o o o o o o o o o o o o o o o o o o o o o o o o o o o o o o o o o o o o o ",
"o o o o o o o o o o o o o o o o o o o o o o o o o o o o o o o o o o o o o o o o o o o o o o o o o o o o o o o o o o o o o o o o ",
"o o o o o o o o o o o o o o o o o o o o o o o o o o o o o o o o o o o o o o o o o o o o o o o o o o o o o o o o o o o o o o o o ",
"o o o o o o o o o o o o o o o o o o o o o o o o o o o o o o o o o o o o o o o o o o o o o o o o o o o o o o o o o o o o o o o o ",
"o o o o o o o o o o o o o o o o o o o o o o o o o o o o o o o o o o o o o o o o o o o o o o o o o o o o o o o o o o o o o o o o ",
"o o o o o o o o o o o o o o o o o o o o o o o o o o o o o o o o o o o o o o o o o o o o o o o o o o o o o o o o o o o o o o o o ",
"o o o o o o o o o o o o o o o o o o o o o o o o o o o o o o o o o o o o o o o o o o o o o o o o o o o o o o o o o o o o o o o o ",
"o o o o o o o o o o o o o o o o o o o o o o o o o o o o o o o o o o o o o o o o o o o o o o o o o o o o o o o o o o o o o o o o ",
"o o o o o o o o o o o o o o o o o o o o o o o o o o o o o o o o o o o o o o o o o o o o o o o o o o o o o o o o o o o o o o o o ",
"o o o o o o o o o o o o o o o o o o o o o o o o o o o o o o o o o o o o o o o o o o o o o o o o o o o o o o o o o o o o o o o o ",
"o o o o o o o o o o o o o o o o o o o o o o o o o o o o o o o o o o o o o o o o o o o o o o o o o o o o o o o o o o o o o o o o ",
"o o o o o o o o o o o o o o o o o o o o o o o o o o o o o o o o o o o o o o o o o o o o o o o o o o o o o o o o o o o o o o o o ",
"o o o o o o o o o o o o o o o o o o o o o o o o o o o o o o o o o o o o o o o o o o o o o o o o o o o o o o o o o o o o o o o o ",
"o o o o o o o o o o o o o o o o o o o o o o o o o o o o o o o o o o o o o o o o o o o o o o o o o o o o o o o o o o o o o o o o ",
"o o o o o o o o o o o o o o o o o o o o o o o o . @ o X @ @ X + o o o o o o o o @ o o * o X o o o o o o o o o o o o o o o o o o ",
"o o o o o o o o o o o o o o o o o o o o o o o o o X   : 2 2 4 - : 2 : 4 ; O + o o @ o X o o X o o o o o o o o o o o o o o o o o ",
"o o o o o o o o o o o o o o o o o o o o o o o + o 5 S Y G K I R U H H v f < 2 + + o o o o % # o o o o o o o o o o o o o o o o o ",
"o o o o o o o o o o o o o o o o o o o o o o o + + w ( e.e.e.e.3.e.e.:.3.@.R l > O + o o o o + o o o o o o o o o o o o o o o o o ",
"o o o o o o o o o o o o o o o o o o o o o o o + O q @.g.g.e.%.] ( @.%.3.3.3.~ B > O * o o o o + o o o o o o o o o o o o o o o o ",
"o o o o o o o o o o o o o o o o o o o o o o o + & 7 :.g.g.P a s h f N ~ 3.3.3.] m - * o . @ X X o o o o o o o o o o o o o o o o ",
"o o o o o o o o o o o o o o o o o o o o o o o o * 9 ( g.8.z > O O 2 2 1 B ( e.3.( 1 O o o o # @ o o o o o o o o o o o o o o o o ",
"o o o o o o o o o o o o o o o o o o o o o o o o o 9 @.g.:.n O @ o + + 2 1 F 3.e.@.y 2 o % o @ @ o o o o o o o o o o o o o o o o ",
"o o o o o o o o o o o o o o o o o o o o o o o o o w @.g.8.v ; o + + X + : g %.e.@.h ; + X o o o o o o o o o o o o o o o o o o o ",
"o o o o o o o o o o o o o o o o o o o o o o o o + w @.g.8.b 2 o * o # +   p @.e.:.b ; X o o X o o o o o o o o o o o o o o o o o ",
"o o o o o o o o o o o o o o o o @ @ o o o o + + O w @.g.:.b 2 o . . o + 2 s 3.g.:.h 2 o o o o o o o o o o o o o o o o o o o o o ",
"o o o o o o o o o o o o o o o o @ @ o o o o + + X 9 ( e.%.k ; o % o o 3 = Z e.e.@.y * o o o + X o o o o o o o o o o o o o o o o ",
"o o o o o o o o o o o o o o o o o o o o o o + + * 9 ^ 3.] k ; + X *   > d @.e.e.W 7 O @ o o + + o o o o o o o o o o o o o o o o ",
"o o o o o o o o o o o o o o o o o o o o o o # + O 9 ] 3.%.c , - > 7 e C %.e.e.@.h : o o o * X + o o o o o o o o o o o o o o o o ",
"o o o o o o o o o o o o o o o o o o o o o o + + + 7 ( g.g.e.Q Q :.@.] @.g.s.} K 4 O * o o o o + o o o o o o o o o o o o o o o o ",
"o o o o o o o o o o o o o o o o o o o o o o + + + 7 @.g.g.g.e.e.s.e.3.3.8.} M 6 O % o o o o # o o o o o o o o o o o o o o o o o ",
"o o o o o o o o o o o o o o o o o o o o o o + + O 9 @.e.g.e.( ( @.( ~ E A r > O + o o o o o o o o o o o o o o o o o o o o o o o ",
"o o o o o o o o o o o o o o o o o o o o o o o o X w @.g.8.D a i u t q , :   O + o o o o o o o o o o o o o o o o o o o o o o o o ",
"o o o o o o o o o o o o o o o o o o o o o . o o X 8 @.g.:.b > O O 2 O O + * o o o o o o o o o o o o o o o o o o o o o o o o o o ",
"o o o o o o o o o o o o o o o o o o o o o . o o + w } g.:.b - o + o o o o o o o o o o o o o o o o o o o o o o o o o o o o o o o ",
"o o o o o o o o o o o o o o o o o o o o o o o + + q :.g.:.x 2 + o o @ o o o o o o o o o o o o o o o o o o o o o o o o o o o o o ",
"o o o o o o o o o o o o o o o o o o o o + + + + O q @.g.:.b 2 o o o o o X o o X o o o o o o o o o o o o o o o o o o o o o o o o ",
"o o o o o o o o o o o o o o o o o o o o + + o o * 9 @.e.@.k & o + X + + + + + + + o o o o o o o o o o o o o o o o o o o o o o o ",
"o o o o o o o o o o o o o o o o o o o o + + o o O 9 ( 3.%.k O o o o + + + + + + o o o o o o o o o o o o o o o o o o o o o o o o ",
"o o o o o o o o o o o o o o o o o o o + + + @ o * 9 ] e.3.j ; o o o o o o o o o o o o o o o o o o o o o o o o o o o o o o o o o ",
"o o o o o o o o o o o o o o o o o o o o + o o o o 5 E ~ E h ; o o o o o o o o o o o o o o o o o o o o o o o o o o o o o o o o o ",
"o o o o o o o o o o o o o o o o + + o o o o o o @ X 2 & 4   + + o o o o o o o o o o o o o o + o o o o o o o o o o o o o o o o o ",
"o o o o o o o o o o o o o o o o + + o o o o o o @ @ @ o o o + o o o o o o o o o o o o o o o o o o o o o o o o o o o o o o o o o ",
"o o o o o o o o o o o o o o o o o o o o + o o o o @ # # o o o o o o o o o o o o o o o o o o o o o o o o o o o o o o o o o o o o ",
"o o o o o o o o o o o o o o o o o o o + + o o o o + + + o o % o o o o o o o o o o o o o o o o o o o o o o o o o o o o o o o o o ",
"o o o o o o o o o o o o o o o o o o o o + o o o + X 3 + X % o o o o o o o o o o o o o o o o o o o o o o o o o o o o o o o o o o ",
"o o o o o o o o o o o o o o o o o o o o o o o o + O + + o o % o o o o o o o o o o o o o o o o o o o o o o o o o o o o o o o o o ",
"o o o o o o o o o o o o o o o o o o o o o o o o o o o o o o o o o o o o o o o o o o o o o o o o o o o o o o o o o o o o o o o o ",
"o o o o o o o o o o o o o o o o o o o o o o o o o o o o o o o o o o o o o o o o o o o o o o o o o o o o o o o o o o o o o o o o ",
"o o o o o o o o o o o o o o o o o o o o o o o o o o o o o o o o o o o o o o o o o o o o o o o o o o o o o o o o o o o o o o o o ",
"o o o o o o o o o o o o o o o o o o o o o o o o o o o o o o o o o o o o o o o o o o o o o o o o o o o o o o o o o o o o o o o o ",
"o o o o o o o o o o o o o o o o o o o o o o o o o o o o o o o o o o o o o o o o o o o o o o o o o o o o o o o o o o o o o o o o ",
"o o o o o o o o o o o o o o o o o o o o o o o o o o o o o o o o o o o o o o o o o o o o o o o o o o o o o o o o o o o o o o o o ",
"o o o o o o o o o o o o o o o o o o o o o o o o o o o o o o o o o o o o o o o o o o o o o o o o o o o o o o o o o o o o o o o o ",
"o o o o o o o o o o o o o o o o o o o o o o o o o o o o o o o o o o o o o o o o o o o o o o o o o o o o o o o o o o o o o o o o ",
"o o o o o o o o o o o o o o o o o o o o o o o o o o o o o o o o o o o o o o o o o o o o o o o o o o o o o o o o o o o o o o o o ",
"o o o o o o o o o o o o o o o o o o o o o o o o o o o o o o o o o o o o o o o o o o o o o o o o o o o o o o o o o o o o o o o o ",
"o o o o o o o o o o o o o o o o o o o o o o o o o o o o o o o o o o o o o o o o o o o o o o o o o o o o o o o o o o o o o o o o ",
"o o o o o o o o o o o o o o o o o o o o o o o o o o o o o o o o o o o o o o o o o o o o o o o o o o o o o o o o o o o o o o o o ",
"o o o o o o o o o o o o o o o o o o o o o o o o o o o o o o o o o o o o o o o o o o o o o o o o o o o o o o o o o o o o o o o o ",
"o o o o o o o o o o o o o o o o o o o o o o o o o o o o o o o o o o o o o o o o o o o o o o o o o o o o o o o o o o o o o o o o ",
"o o o o o o o o o o o o o o o o o o o o o o o o o o o o o o o o o o o o o o o o o o o o o o o o o o o o o o o o o o o o o o o o ",
"o o o o o o o o o o o o o o o o o o o o o o o o o o o o o o o o o o o o o o o o o o o o o o o o o o o o o o o o o o o o o o o o "
};
