/* XPM */
static char *b473b45bca51486bdbdca5e9468e9a92knt5urnuUcJirDp8[] = {
/* columns rows colors chars-per-pixel */
"64 64 99 2 ",
"   c #5F3527",
".  c #613627",
"X  c #66382A",
"o  c #6C3C2D",
"O  c #723F2F",
"+  c #663E30",
"@  c #733F31",
"#  c #75422F",
"$  c #6D4235",
"%  c #754131",
"&  c #7C4536",
"*  c #724538",
"=  c #7E4738",
"-  c #764A3B",
";  c #7D493B",
":  c #774D40",
">  c #7F4F40",
",  c #7E5144",
"<  c #7D5548",
"1  c #814737",
"2  c #834937",
"3  c #824738",
"4  c #854A3A",
"5  c #8B4D3B",
"6  c #904F3E",
"7  c #8F503E",
"8  c #92513F",
"9  c #844F40",
"0  c #845244",
"q  c #8B5442",
"w  c #8D5846",
"e  c #835648",
"r  c #885649",
"t  c #875C4E",
"y  c #8C5B4C",
"u  c #955341",
"i  c #9A5643",
"p  c #9E5846",
"a  c #935C4C",
"s  c #9B5D4D",
"d  c #835E51",
"f  c #8D5E50",
"g  c #A65B46",
"h  c #AA5E47",
"j  c #A25B49",
"k  c #A85D48",
"l  c #9B604F",
"z  c #8F6050",
"x  c #8E6357",
"c  c #886559",
"v  c #8E665A",
"b  c #966253",
"n  c #9B6051",
"m  c #9C6151",
"M  c #946759",
"N  c #91695E",
"B  c #926A5F",
"V  c #9E6959",
"C  c #A4624F",
"Z  c #AF6149",
"A  c #B0624B",
"S  c #B1634C",
"D  c #A26352",
"F  c #A46451",
"G  c #A86755",
"H  c #A76A56",
"J  c #AD6B55",
"K  c #A36A58",
"L  c #AC6D58",
"P  c #8E6E63",
"I  c #976D61",
"U  c #9B6E60",
"Y  c #9A6F62",
"T  c #9A7264",
"R  c #A16E60",
"E  c #A17365",
"W  c #A37466",
"Q  c #A67468",
"!  c #A5796D",
"~  c #9B867B",
"^  c #9D897E",
"/  c #A08A7F",
"(  c #9E8C82",
")  c #9E8D83",
"_  c #9F8E84",
"`  c #9F9085",
"'  c #A08D84",
"]  c #A08F84",
"[  c #A29187",
"{  c #AA9389",
"}  c #AF958B",
"|  c #AA968D",
" . c #AD948C",
".. c #AF988F",
"X. c #AE9890",
"o. c #AC9A92",
"O. c #AE9B93",
"+. c #AF9D95",
"@. c #B09D95",
/* pixels */
"p i 8 8 8 8 u i i i W @.@.@. .i i i i i p p p u 7 7 7 u g g g g i i i i g k k k i 5 5 5 b @.@.@.o.i i i i j g g g j i i i i i i ",
"p i 8 8 8 8 u i i i W +.@.@.} i i i i i p p p u 5 5 7 u g g g g i i i i g k k k i 5 5 5 b @.@.@.o.i i i i j g g g j i i i i i i ",
"4 4 2 2 2 2 4 5 5 5 Y +.@.@.} h h k k 5 4 4 4 & % % % % % % % % 4 4 4 4 2 2 2 2 4 4 4 4 z +.@.@.o.i i i i 5 4 4 4 4 4 4 4 4 4 4 ",
"= & & & & & 3 4 4 4 I +.@.@. .Z A A Z 2 & & & O o o o o X X X X & & & & % # % # & 2 2 2 y @.@.@.o.i i i i 4 & & & & & & & & & & ",
"= & & & & & 3 4 4 4 I @.@.@. .Z A A Z 2 & & & O o o o o X X X X & & & & % % % % & 2 2 2 y @.@.@.o.i i i i 4 1 1 1 & & & & & & & ",
"= & & & & & 3 4 4 4 I +.@.@. .Z A Z Z 2 & & & O o o o X X X X X & & & & % # % % & 2 2 2 f @.@.@.o.i i i i 4 & & & & & & & & & & ",
"= & 1 1 1 1 & & & & N +.@.@.} g k k k 3 & & & % % % % O o o o o & & & & % % % % & 1 1 1 y @.@.@.o.8 8 8 8 4 4 4 4 3 & & & & 2 2 ",
"= & 5 5 5 5 % o o o c @.@.+. .i i i i 3 & & & & & & & % @ @ @ % & & & & & & & & & & & & t @.@.@.o.2 2 2 2 5 5 8 8 4 & & & & 5 5 ",
"= & 5 5 5 5 % o o o c @.@.+. .i i i i 3 & & & & & & & % @ @ @ % & & & & & & & & & & & & t @.@.@.o.2 2 2 2 5 5 7 7 4 & & & & 5 5 ",
"= & 5 5 5 5 % o o o c @.@.@. .i i i i 3 & & & & & & & % @ @ @ % & & & & & & & & & & & & t @.@.@.o.2 2 2 2 5 5 7 7 4 & & & & 5 5 ",
"e e w a a a , : - : P o.o.o.{ n n n n r e e e e e e e 0 , , , , e e e e e e e e e e e 0 v o.o.o.| r e e e w a a a r e e e e a a ",
"] ) ) ) ) ) ) ) ) ) ) _ ] ] _ ) ) ) ] ) ) ) ) ) ) ) ) ) ) ) ) ) ) ) ) ) ) ) ) ) ) ) ) ) ) _ ] ] _ ) ) ) ) ) ) ) ) ) ) ) ) ) ) ) ",
"[ ] ] ] ] ] ] ] ] ] ] ] ] ] ] ] ] ] ] ] ] ] ] ] ] ] ] ] ] ] ] ] ] ] ] ] ] ] ] ] ] ] ] ] ] ] ] ] ] ] ] ] ] ] ] ] ] ] ] ] ] ] ] ] ",
"[ ] _ _ _ _ _ _ _ _ _ _ _ _ _ _ _ _ _ _ _ _ _ _ _ _ _ _ _ ] _ ] ] ] ] ] ] ] ] ] ] ] ] ] ] ] ] ] ] ] ] ] ] ] ] ] ] ] ] ] _ _ _ ] ",
"] _ ] _ _ _ _ _ _ _ _ _ _ _ _ _ _ _ _ _ _ _ _ _ _ _ _ _ _ ] ] _ _ ] ] ] ] ] ] ] ] ] ] ] ] ] ] ] ] ] ] ] ] ] ] ] ] ] ] ] ] _ _ ] ",
"w q s s s s s s s s s s s s s s s s s s s s s s s s s E o.o.o. .C C C C C C C C C C C C C C C C C C C C C C C C C C C C C K _ ] ",
"5 5 i i i i i i i i i i i i i i i i i i i i i i i i i R +.@.@. .g g g g g g g g g g g g g g g g g g g g g g g g g g g g g F _ ] ",
"5 5 i i i i i i i i i i i i i i i i i i i i i i i i i R @.@.@...g g g g g g g g g g g g g g g g g g g g g g g g g g g g g F _ ] ",
"5 5 i i i i i i i i i i i i i i i i i i i i i i i i i R @.@.@...g g g g g g g g g g g g g g g g g g g g g g g g g g g g g F _ ] ",
"u 8 4 4 4 4 u i i i 8 4 4 4 4 % % % % 2 4 4 4 4 4 4 4 M @.@.@...g g g g 8 5 5 5 4 1 1 1 2 5 5 5 5 1 1 1 1 4 5 5 5 5 5 5 5 w _ ] ",
"p i & & & & 6 i i i 5 & & & % . . . . % & & & & & & & x +.@.@...g g g g 4 & & & O o o o O & & & & o o o o % & & & & & & & 0 ] ] ",
"p i & & & & 6 i i i 5 & & & % . . . . % & & & & & & & x @.@.@...g g g g 4 & & & O o o o O & & & & o o o o % & & & & & & & 0 [ ] ",
"p i & & & & 6 i i i 5 & & & % . . . . % & & & & & & & x @.@.@...g g g g 4 & & & # o o o O & & & & o o o o % & & & & & & & 0 [ ] ",
"p i % % % % 5 i i i 5 @ % % @ o o o o @ % % @ % & & & x @.@.@...g g g g 1 % % % % O O O % % % % % O O O O % & & & & & & & 0 [ ] ",
"p u X . . . 4 i i i 2 . . . X & & & & X . . . O & & & x @.@.@...g g g g % o o o % & & & % o o o o & & & & & & & & & & & & 0 [ ] ",
"p u X . . . 4 i i i 2 . . . X & & & & X . . . O & & & x +.@.@...g g g g % o o o % & & & % o o o O & & & & & & & & & & & & 0 [ ] ",
"p u X . . . 4 i i i 2 . . . X & & & & X . . . O & & & x +.@.@...g g g g % o o o % & & & % o o o O & & & & & & & & & & & & 0 [ ] ",
"n s $ $ $ $ q s s s 0 $ $ $ $ 0 0 0 0 * $ $ $ - 0 0 0 N o.o.o. .C F F C ; - - - ; 0 0 0 > - - - - 0 0 0 0 0 0 0 0 0 0 0 0 t _ ] ",
"] ) ^ ^ ^ ^ ) ) ) ) ) ^ ^ ^ ^ ) ) ) ) ^ ^ ^ ^ ^ ) ) ) ) ] ] ] ] ) ] ) ] ) ^ ^ ^ ) ) ) ) ) ^ ^ ^ ^ ) ) ) ) ) ) ) ) ) ) ) ) ) _ ] ",
"[ ] ] ] ] ] ] ] ] ] ] ] ] ] ] ] ] ] ] ] ] ] ] ] ] ] ] ] ] ] ] ] ] ] ] ] ] ] ] ] ] ] ] ] ] ] ] ] ] ] ] ] ] ] ] ] ] ] ] ] ] ] ] ] ",
"[ _ _ _ _ _ _ _ _ _ _ _ ] ] _ _ _ _ _ _ _ _ _ _ _ _ _ _ _ ] ] _ _ _ _ _ _ _ _ _ _ _ _ _ _ _ ] _ _ _ _ _ _ _ _ _ _ _ ] ] [ ] ] ] ",
"[ _ ` ` ` ` ` ` _ _ _ ) _ _ _ _ _ _ _ _ _ _ _ _ _ _ _ _ ] ] ] _ _ _ _ _ _ _ _ _ _ _ _ _ _ _ _ _ _ _ _ _ _ _ _ _ _ _ ] ] ] _ _ _ ",
"D D D D D D D D D D ! o.o.o. .s s s s s s s s s s s s D J J J J s s s s s s s s s s s s Y o.o.o. .l s s s s s s s F J J J G q q ",
"j p p p p p p j p p Q +.@.@. .i i i i i i i i i i i i j S S S Z i i i i i i i i i i i i V @.@.@.o.i i i i i i i i j S S S k 4 4 ",
"j p p p p p p p p p Q +.@.@. .i i i i i i i i i i i i j S S S Z i i i i i i i i i i i i V @.@.@.o.i i i i i i i i j S S S k 4 4 ",
"j p p p p p p p p p Q +.@.@. .i i i i i i i i i i i i j S S S Z i i i i i i i i i i i i V @.@.@.o.i i i i i i i i j S S S k 4 4 ",
"q 5 5 5 5 5 5 5 5 5 Y +.@.@. .i i i i 5 5 5 5 5 5 5 5 5 8 8 8 8 5 5 5 5 u i i i 5 3 1 1 f @.@.@.o.i i i i 8 5 5 5 8 8 8 8 8 4 4 ",
"= & & & & & & & & & N +.@.@. .i i i i 3 & & & & & & & & & & & & & & & & 8 i i i & o o o < @.@.@.o.i i i i 5 4 4 4 1 & & & & 4 4 ",
"= & & & & & & & & & N +.@.@. .i i i i 3 & & & & & & & & & & & & & & & & u i i i & o o o < @.@.@.o.i i i i 5 4 4 4 1 & & & & 4 4 ",
"= & & & & & & & & & N +.@.@. .i i i i 3 & & & & & & & & & & & & & & & & 8 i i i & o o o < @.@.@.o.i i i i 5 4 4 4 1 & & & & 4 4 ",
"2 & & & & & & 1 & & N @.@.@.} i i i i 3 & & & % % % % % & & & & % % % % 8 i i i 4 % % % t +.@.@.o.i i i i 5 2 4 2 1 & & & 1 2 2 ",
"5 4 & & & & 2 5 5 5 Y @.@.@. .i i i i 3 & & & o       o & & & & o o o o 6 i i i i i i i V @.@.@.o.i i i i 4 & & & 1 4 4 4 2 & & ",
"5 4 & & & & 2 5 5 5 Y @.@.@. .i i i i 3 & & & o       o & & & & o o o o 6 i i i i i i i V @.@.@.o.i i i i 4 & & & 1 4 4 4 2 & & ",
"5 4 & & & & 2 5 5 5 Y @.@.@. .i i i i 3 & & & o       o & & & & o o o o 6 i i i i i i i V @.@.@.o.i i i i 4 & & & 1 4 4 4 2 & & ",
"q q 4 4 4 4 0 q q q T o.o.o.} s s s s 9 4 4 4 $ + + + $ ; 4 4 ; * * * * u s s s s s s s V o.o.o. .s s s s 0 4 4 4 4 q q q 0 ; 4 ",
") ^ ^ ^ ^ ^ ^ ^ ^ ^ ) [ [ [ [ ^ ) ) ^ ^ ^ ^ ^ ~ ~ ~ ~ ~ ^ ^ ^ ^ ^ ^ ^ ^ ^ ^ ^ ^ ^ ^ ^ ^ ) ] [ [ ] ^ ^ ^ ^ ^ ^ ^ ^ ^ ^ ^ ^ ^ ^ ^ ",
"[ ] ] ] ] ] ] ] ] ] ] ] ] ] ] ] _ _ ] ] ] ] ] ] ] ] ] ] ] ] ] ] ] ] ] ] ] ] ] ] ] ] ] ] ] ] ] ] ] ] ] ] ] ] ] ] ] ] ] ] ] ] ] ] ",
"[ ] ] ] ] ] ] ] ] ] ] ] ] ] ] ] ] ] ] ] ] ] ] ] ] ] ] ] ] ] ] _ _ ] ] ] _ ] ] _ ] ] ] ] ] ] ] ] ] ] ] ] ] ] ] ] ] ] ] ] ] _ ] ] ",
"[ ] _ _ _ _ _ ] ] ] _ _ _ _ _ _ _ _ _ _ _ _ _ _ _ _ _ _ ) _ _ _ _ ] ] ] _ _ ] _ _ _ _ _ _ _ _ _ _ _ _ _ _ _ _ _ _ _ _ _ _ _ _ ] ",
"m m m m m m F G G G F n m m m m m m m m m m m m m m m W o.o.o.| s s s s H L L L D m m m m m m m m m m m m m m m m m m m m V _ ] ",
"p i i i i i g k k k j i i i i i i i i i i i i i i i i R +.@.@.o.8 u u u k S S Z j i i i i i i i i i i i i i i i i i i i i l ` ] ",
"p i i i i i g k k k j i i i i i i i i i i i i i i i i R @.@.@.o.8 u u u k S S A j i i i i i i i i i i i i i i i i i i i i l _ ] ",
"p i i i i i g k k k j i i i i i i i i i i i i i i i i R @.@.@.o.8 u u u k S S A j i i i i i i i i i i i i i i i i i i i i l _ ] ",
"p i 5 5 5 5 8 8 8 8 6 5 5 5 5 5 5 5 5 5 5 5 5 4 4 4 4 M @.@.@. .8 u u u u u u u 5 5 5 5 5 5 5 5 5 5 5 5 5 5 5 5 5 5 5 5 5 w _ ] ",
"p i & & & & & & & & & & & & & & & & & & & & & O o o o d @.@.@. .i i i i = & & & % & & & & & & & & & & & & & & & & & & & & , _ ] ",
"p i & & & & & & & & & & & & & & & & & & & & & O o o o d @.@.@.o.i i i i 1 & & & & & & & & & & & & & & & & & & & & & & & & , [ ] ",
"p i & & & & & & & & & & & & & & & & & & & & & O o o o d @.@.@.o.i i i i & & & & & & & & & & & & & & & & & & & & & & & & & , [ ] ",
"p i & % % % & & & & & & & & & & & & & & & & & % o o o d @.@.@.o.i i i i & & & & & & & & & & & & & & & & & & & & & & & & & , [ ] ",
"p u o o o o % & & & & & & & & & & & & & & & & & & & & x @.@.@. .i i i i 1 & & & & & & & & & & & & & & & & & & & & & & & & , [ ] ",
"p u o o o o % & & & & & & & & & & & & & & & & & & & & x +.@.@. .8 i i i 1 & & & & & & & & & & & & & & & & & & & & & & & & , [ ] ",
"p u o o o o % & & & & & & & & & & & & & & & & & & & & x +.@.@. .i i i i 1 & & & & & & & & & & & & & & & & & & & & & & & & , ` _ ",
"p i * $ $ $ & = = = = = = ; = ; = = = = = ; = ; = = = v +.+.+. .i s i i 4 ; ; ; ; ; ; ; ; ; ; ; ; ; ; ; ; ; ; ; ; ; ; ; ; e _ _ ",
"/ ^ ~ ~ ~ ~ ~ ~ ~ ~ ~ ~ ~ ~ ~ ~ ~ ~ ~ ~ ~ ~ ~ ~ ~ ~ ~ ^ [ [ [ [ ^ ^ ^ ^ ~ ~ ~ ~ ~ ~ ~ ~ ~ ~ ~ ~ ~ ~ ~ ~ ~ ~ ~ ~ ~ ~ ~ ~ ~ ^ _ _ ",
"[ ] ] ] ] ] ] ] ] ] ] ] ] ] ] ] ] ] ] ] ] ] ] ] ] ] ] ] ] ] ] ] ] ] ] ] ] ] ] ] _ _ _ _ ] _ _ _ _ _ _ _ ] _ _ _ _ _ _ _ ] _ _ _ "
};
