/* XPM */
static char *d90a682884974eb2c42b336dba1af3d3iq6nb1lJSOXo4BH0[] = {
/* columns rows colors chars-per-pixel */
"64 64 155 2 ",
"   c #375F16",
".  c #395F12",
"X  c #375F19",
"o  c #3A5F1B",
"O  c #376514",
"+  c #3A6515",
"@  c #376914",
"#  c #3C6A16",
"$  c #376219",
"%  c #3C651B",
"&  c #3E6A1B",
"*  c #3F711B",
"=  c #3E6621",
"-  c #3E6922",
";  c #416317",
":  c #416A16",
">  c #41661C",
",  c #426C1D",
"<  c #496D1D",
"1  c #44721D",
"2  c #4A751E",
"3  c #46791E",
"4  c #4B7A1E",
"5  c #426621",
"6  c #436C22",
"7  c #496E22",
"8  c #456F29",
"9  c #4B6F28",
"0  c #457322",
"q  c #4A7524",
"w  c #457923",
"e  c #4C7B24",
"r  c #467229",
"t  c #4C752A",
"y  c #4D7B2A",
"u  c #507724",
"i  c #517D25",
"p  c #50762A",
"a  c #527D2B",
"s  c #597E2E",
"d  c #4D7B31",
"f  c #547E31",
"g  c #52831F",
"h  c #4E8225",
"j  c #4E822A",
"k  c #538326",
"l  c #588727",
"z  c #538925",
"x  c #598C26",
"c  c #57852B",
"v  c #55862A",
"b  c #54872A",
"n  c #55862B",
"m  c #54872B",
"M  c #56872B",
"N  c #558428",
"B  c #50802C",
"V  c #52822C",
"C  c #53832F",
"Z  c #54812C",
"A  c #55812C",
"S  c #55822D",
"D  c #56822D",
"F  c #54812E",
"G  c #56802E",
"H  c #56812F",
"J  c #57812F",
"K  c #56832E",
"L  c #57832E",
"P  c #50852D",
"I  c #53852C",
"U  c #52842D",
"Y  c #52872F",
"T  c #56842C",
"R  c #56872E",
"E  c #53842B",
"W  c #59872D",
"Q  c #58842F",
"!  c #59852D",
"~  c #52882A",
"^  c #53882C",
"/  c #55882C",
"(  c #54892D",
")  c #56892D",
"_  c #558B2D",
"`  c #54892F",
"'  c #57882F",
"]  c #568B2F",
"[  c #558A2C",
"{  c #598828",
"}  c #5B882B",
"|  c #5B8F2A",
" . c #5C8C29",
".. c #5E8E2B",
"X. c #5F8F2B",
"o. c #5B882D",
"O. c #58892E",
"+. c #598A2F",
"@. c #5B8A2E",
"#. c #5A8C2D",
"$. c #5A8D2E",
"%. c #5D8F2C",
"&. c #5F8F2C",
"*. c #5D8F2E",
"=. c #5C8E2F",
"-. c #5A8B2D",
";. c #59902B",
":. c #5E902D",
">. c #5F912E",
",. c #5E902F",
"<. c #5E922E",
"1. c #5F932E",
"2. c #5C912C",
"3. c #4F8031",
"4. c #528631",
"5. c #538732",
"6. c #538734",
"7. c #558431",
"8. c #588133",
"9. c #588333",
"0. c #598530",
"q. c #5A8337",
"w. c #5A8533",
"e. c #548931",
"r. c #578930",
"t. c #558A30",
"y. c #558A32",
"u. c #568A32",
"i. c #588930",
"p. c #598A31",
"a. c #598C30",
"s. c #5A8D30",
"d. c #5F8F33",
"f. c #5D8934",
"g. c #5C8B32",
"h. c #598339",
"j. c #5E8C39",
"k. c #5F9130",
"l. c #5E9031",
"z. c #5F9035",
"x. c #5F9037",
"c. c #5D9133",
"v. c #5F9139",
"b. c #608D2C",
"n. c #61922E",
"m. c #618D34",
"M. c #618D3A",
"N. c #609231",
"B. c #629133",
"V. c #609233",
"C. c #609135",
"Z. c #639234",
"A. c #629133",
"S. c #60903C",
"D. c #64943A",
/* pixels */
"X.&.&.n O + % $ 5 9 t q 0 i c k N E y y y f a a p u u i u u p y y 4.4.U y.y.^ ) O.O.A q q q q Q Z.&.c.S.0 - - = 5 q q y q e a A ",
"X.:.&.E O O % $ 7 9 t 9 q a c E k k E C a a a t p u p p u q p y e 4.y.U ) ) ^ s.O.p.A q 0 q q Q N.&.C.c.0 & % - 5 t t q 0 q A A ",
"&.:.&.k @ O % $ 7 7 9 q q a Q E U E E y y a a e p p p e u q q e w U y.) ) ) ) s.p.p.A q q q q A N.:.N.g.3 # % & % t t t q q A a ",
"#.#.s.E 1 , 0 7 7 7 7 7 7 q p e y e E E k k E e q q t q a i i i h E n n n E n ) I ) A q q q q A l.:.:.l.4 4 q q q 8 t t r 0 a a ",
"n ~ ) E U C 9.9.q 6 > > > > , & @ & C O.g.O.W 2 0 7 0 0 0.W { { l N N E n E E E A A A e e y q I #.;.| :.{ X.O.f.h.8 % % % $ a A ",
"E E ^ U p.p.f.q.q > ; > > % % % + @ 7.g.C.O.O.1 0 7 0 1 f.g.X.{ &.N k N E E A a a A C e p a e n #.2.| 2.X.n.&.m.M.5 o o %   a a ",
"^ U U j u.I W W q > + > > > 5 5 5 & 7.0.g.c g.1 0 0 0 < f.O.-.{ g.i a A a a 7.a a A C e y i e n #.c.[ | | 2.{ g.j.& $ % 5 $ a a ",
"U U U j u.n ) 0.q : + > > % % % % + 7.0.j.0.f.1 0 0 0 , f.p.@.g.w.a a q.7.f 9.7.f 7.C e y i e N [ c.[ #.| g.O.g.f.# O O % O f f ",
"e e w h E n E c q 2 < < 7 8 8 8 0 0 7 q t q 0 y t e e e q q q q q 6 q 7 7 8 y t y y a A n E N z [ z { ) I C I E N c i u a a 7 t ",
"0 0 0 w j E k n i q q q t t t t q 0 > % % % 5 a f A a p : # + % 5 % 5 % % = t r 7 0 e W O.O.O.{ x z ) y.C y a y i -.-.b.m.w., , ",
"0 0 1 w E E k n e 2 2 2 0 q 0 q q 0 % $ % X % a a A E N : > , 7 % $ = % % % t r t q y p.O.{ { z x z ) 6.3.t y e i X.b.n.Z.g., % ",
"q q 0 w E E k N i 4 2 2 q q q q q q > % = $ & f a A N N # + + % - $ - % % % t q q , e p.O._ s.2.x z ) 6.7.d f a i X. . .b.@., & ",
"q 0 1 w E n k n 4 2 2 2 2 3 3 3 2 1 # + % O @ y A E a i , : : > , $ % % + + 0 q q 0 y 7.) I ) ) x z s.6.C t y y e &.n.n.N.g.1 & ",
"7 7 0 e 0.p.O.O.O.c c c n E E U W A A E C j y C e e e y A W 0.0.q.y a a a a f.m.d.g.C y w 0 w e [ [ s.y.y w 0 0 2 @.N.m.C.m.q 2 ",
"7 7 0 y p.d.s.g.@.{ { @.O.) ~ ) I I O.#.) ^ j 3 w 0 w 0 j.g.m.g.m.E C E E E C.C.C.D.I 1 * * 0 j [ [ #.) e 1 1 1 1 0.m.g.d.m.y y ",
"7 7 7 y 0.f.p.O.O.{ { { { ~ ~ ^ g.E n n h { ^ 3 w w w 1 D.g.l.m.m.E E k E E C.g.O.D.p.3 0 w 0 e _ [ s.) e 1 1 0 1 f.D.D.M.j.w 0 ",
"q 7 7 y q.f.O.O.[ z z | _ E y.U ) n ) ) E ) ^ w w w 1 1 c.l.#.g.m.Q Q E n n d.c.d.D.I 1 1 1 1 j ) s.g.y.e * 1 0 1 s.c.s.D.d.e e ",
"7 7 7 a q.f.p.g.[ [ z [ _ E 4.7.7.I I I U U j e 1 w 3 3 s.s.#.C.m.a A E E C j.v.g.c.E 1 1 1 1 e s.s.f.4.y w 1 1 3 O.c.g.D.d.y y ",
"> > % , 0 0 : 1 h z z { ) e w w e 0 # & @ & & e C U E h #.) n O.Q > > & # & E n y.s.u.) ) #.) n 3 3 0 e y y C E h k e 3 w e e y ",
"> > & 6 0 0 1 1 4 | [ _ #.y 0 w t q O % O + + 7.C I C E O.O.c W w.> # > # 1 I ) j j ^ ) s.l.s.k 3 3 1 w a 7.7.E E e e e e e e q ",
"% % % & 0 0 1 1 e #.{ { ) y e y t t % & % % + 7.a E a E W O.c W 7.% & : # # E N s.{ ) ) I s.p.y y e e e y C C y n e e k i e e q ",
", , & & 0 0 1 1 e O.O.O.) y 0 0 t t % % % + + C 7.A E I I O.W W q.7 , > & 1 ) ) E N { O.O.s.p.y 0 0 0 q y 7.7.I W e 4 e e e y y ",
"% & & & 6 0 0 0 e I O.g.0.a y q q q > + & & & e C C E 7.E I I 0.f 8 , + @ : E O.E E O.O.p.f.q.a w q q q y 7.A a a y e a a a q q ",
"t y t 0 6 , & , q e q e q e Q a a 0.w.0.M.f.I p.I I C A 0 0 1 0 r = 5 & , 1 y h E N w 1 # & , , 6 , , , 0 q q 1 1 , # + & & & , ",
"t y y 0 , & & & 0 p y q q a a E i N W g.g.s.O.E n U U 4.w w 0 0 8 = - & & & C C y U e : : 1 , 6 - 6 6 , 0 w 0 w q & & & % > > , ",
"t y t 0 , , , , , y q y q a a N k k { &.#.&.#.N E E U 4.w 0 0 0 r 5 5 6 6 , y y C 7.e : , , , 6 6 6 6 6 0 q w w q & & & > 5 5 5 ",
"t y t 0 , , > , q t t y q A N N g g z | | | | N N E U 4.0 0 0 r 8 5 - & & , a 7.7.7.y , , , , , - 6 - & 0 0 0 0 q & & - 5 5 5 5 ",
"q q q 0 0 < < 7 t t t q 0 a c c l g x 2.;.2.| z z n I 7.0 0 0 r 0 0 6 , 6 0 a a y a y 0 0 0 0 0 6 8 6 , 0 e e e y , & - 5 6 5 5 ",
"0 0 q q q t p a 7 6 % , > a g.&.X.| :.n.n.n.:.{ z n I I 0 7 8 8 0 y a A a y q 0 0 q e p a a a a t y q e E ) I 7.7.0 6 6 6 7 6 7 ",
"0 0 0 q e p a f 8 > $ % + a m.m.b.&.n.Z.Z.Z.n.{ { O.W 0.7 , 7 7 1 E E W A a q , 0 1 e A A W A a y y e y { #.s.s.p.w 6 6 8 7 6 7 ",
"0 0 0 q e t t p 9 6 % > + a m.@.g.g.N.N.N.N.n.{ { W W 0.< < 7 7 1 k e k i a q 0 0 1 e A E E N e q e 3 4 N | { ) y.0 , 5 5 8 6 6 ",
"0 1 1 q e y y y 7 > % > # N m.@.g.g.m.C.C.Z.N.{ W W 0.0.7 < 7 7 1 E h E E a q 1 q 1 e E E k N e w e 3 4 n #.O.O.0.0 , , 7 7 < < ",
"h h k E h j U j y e w w y E n W @.N N.D.g.C.C.i E a a a 0 0 0 0 1 j y C y y : : : : 4 p.) O.n ~ h h e U e e q q q a p q e i e 2 ",
"_ _ s.) ^ ^ y.^ s.#.O.{ O.O.W W { N &.C.g.m.m.y w e e y 0 q r r w y y y y y & & + + q D.C.D.c.c.~ ^ U U , & + + > s w.w.g.@.E k ",
"O.O.) y.U E E ~ { [ | | { n E k N N &.N.&.C.g.w q q q y 0 q 0 q 0 e e y t t - = - % q j.d.g.#.z h E e.4., & & > + s m.W g.W a i ",
"g.d.g.u.) E E ~ z { | #.{ { n E N N &.N.m.Z.g.4 w w q y 0 q 0 0 q w e y y t - = - % t M.M.D.Z.#.) ) g.7., + & + : Q m.! g.W a A ",
"7.f.7.I p.) N { [ [ ;._ [ { { { n z #.:.&.C.s.e w e e y 0 q w q q 0 q y t t 8 - - - t j.M.M.m.O.I C 7.a 0 & & + : E W W w.0.a a ",
", 0 1 w I ) N [ z z z z ~ ~ ) { #.{ { { { #.O.E E E C A e e e e q 7 0 6 0 0 t t d r t 0 q 0 0 , , , 0 1 y y a y q e e e e e q q ",
"O + + 1 O.l.[ 2.z z h z ~ _ s.c.g.| { N n { { ) O.p.p.p.e w w e t 5 6 & , 0 y j C C t + % % 5 > % & & & a 7.7.7.p.e 1 1 < 0 t t ",
"% % + 1 s.l.{ [ z z h h ~ ) _ s.g.| { { { n n O.n ) ) O.w w w y t 5 6 & , 1 j E e C y + 5 = 5 > > > % + 7.7.4.7.7.3 1 q 0 0 p t ",
"% $ + 3 ) &.| [ [ h ~ ~ h _ c.s.l.#.{ { N { O.n O.s.g.I y 3 3 e t 5 & & , 1 E E y C e & % % = 5 % < & & y 7.4.y.y.0 1 0 < 0 p t ",
"% % + 3 n #.#.#.{ h ^ U E s.l.#.{ { n N N n n O.n n O.n y w w e q , , & 1 1 w y y y q , % & % % + % & , y 7.4.7.C 0 3 q 0 q p t ",
"y y e i ) { n ) 3 # * & * y n n O.O.k e k e k O.g.g.d.g.O.O.O.p.O.E n E C C 0 q 0 0 y a 9.0.w.0.0.7.7.a 0 & @ @ : 0 e e p t q 7 ",
"a y e i n { n n w & @ O @ e O.O.n { k e k e e s.O.p.p.p.O.O.p.O.{ N { ) I 7.@ 6 6 6 t q.f.0.W E E y A 7.6 O @ @ O q y y a t < > ",
"e e w i n ) n I y & 6 & , a W W N c k i N i i g.g.g.g.g.g.g.g.s.| k { n 7.7.6 t 8 5 t q.g.@.g.@.W h 0.0.1 + % % % y p q p q 7 0 ",
"e e e k { O.I 7.q % = % & p Q c W O.k e e e k m.g.g.g.g.g.p.g.O.#.z ~ I 7.C , 6 8 7 y q.p.I n k n y I 7.1 + & @ % q y q a e < 1 ",
"q e e y N n I q.t 6 6 = 5 p ! ! W n E y y i E p.g.g.g.g.g.g.g.p.s.E U I I y q 0 , 7 q A f.p.p.d.n h E y 1 % % O & q p p a e 1 1 ",
"g.m.&.{ N k y 7.8 % = % % 7 2 < , q E p.O.O.n i e e e e w e w w w @ @ @ & # e q p e 1 > , & & 0 U E ^ 7.C y a a y a p p p e q e ",
"b.-.X.{ k h E y 0 % % > > < 7 < 7 < 0.W ) #.{ 4 e e e t y e e y y % % % & & p p p e q + % & % t 6.j e.e.j y y a p p p p p p q y ",
"b.-.b.{ h h E C 0 % % % > > 7 < 7 7 w.O.{ O.{ 4 e e p t y y y y t % % > & > q q e e q , , 5 = t 7.j U j h h h E i p p p a p e e ",
"@.@.@.{ e e j y 0 & % > > > 7 7 < < w.O.O.#.O.e e q q t t e e w t > % O % > y a a y q , % + & q 7.j U 4.j e h a a t p p p q q q ",
"0.W W n E E U U 0 & & > , < 0 0 q q W W I ) O.q q q t t y y y e q , % % % , t t t t q 0 , : 1 e 4.j U U e w e e a y p t p q a a ",
", , & 1 e j j y C y y p a a 7.A a p W E E E C # % % % % , & & & 1 < 7 q 7 8 6 - 5 6 q 7.0.I E N E y j y 1 * , , , % > % % + e y ",
"% & & w C e.U U y e e y y a A a W E E E E E C + & % % & 6 0 0 1 1 0 0 q 0 0 - % = & 0 q.f.g.@.n E y y e 1 & & & 5 % > % % + f A ",
"5 - & 0 C j h j h y y y e E U E E i E E C C 9.& % % % % 6 1 1 1 , q 0 0 7 0 5 5 5 & , A W E O.N E a E y w & & & 5 % > % % . a a ",
"6 6 - 0 j j h E h e e e e h E k k k E A C C 9.& & % % & , 0 1 , , q 0 q 0 0 & & , > 0 0.p.E O.k i a E a w & & 5 5 % % % , O 9.p ",
"= = - 0 C E E h k h k h h N ~ E k W w w a e t t w w 0 t 0 q 0 0 0 0 6 7 q , q 0 0 1 e E A E E E e a y w e e q t d % > % % > a a ",
"= % = , C E n N n N N N N { #.{ ) O.3 : 1 1 q f 7.7.7.7.y a a y y 0 5 & , < Q Q g.W E i w w e q q e e e C 7.9.h.h.7 6 6 , , p e ",
"= % % , C E n k k k k k k n { ~ ~ s.3 1 1 , 0 q.7.f.7.7.e y e y y 6 5 & > < w.W Q E a i w y y y q q q e I g.f.f.q., & & > : q q ",
"= % % 6 A I n E W n c n n O.#.) ~ ) 3 1 < , : 0.7.) ) ) e e e p y & 5 , > < 0.Q ! Q A a e y y q q e q e U y.I I f.1 & & , : y E ",
"= % % , 7.A A E A A A A E I O.) ) ^ 3 1 1 1 : W I ) { { e e i a a & , , , 0 9.9.w.9.a p q y y q q q q w E ) ) O.U 1 & # & @ w e ",
"5 % > , y q q q 0 7 0 1 1 e h h E j j a 7.A a g.{ #.[ [ e k i a a : q 7 7 7 q 7 7 7 q p a E E y 0 0 0 0 j ) _ s.s.j E y E y I y.",
"6 5 5 % 0 , , , , > > > , 0 y e e w g.f.D.M.m.m.:.:.2.:.N n E Q E 1 q q t 7 % o % % 7 a a E e 2 7 0 , 1 h ) [ [ ) E ) I p.7.f.y.",
"6 6 6 , q , 7 0 6 , , > , 0 y e h w v.0.M.w.m.&.&.2.x ;.k N E E N 1 q 0 t 7 5 5 5 % 6 a A a i e 0 6 & * h _ _ [ #.{ s.n f.y.y.y."
};
