/* XPM */
static char *dd954e46f93b4615d46b8202448077482Ha5f0rv4IiSGkD4[] = {
/* columns rows colors chars-per-pixel */
"64 64 208 2 ",
"   c #3C352B",
".  c #3A392E",
"X  c #3F3327",
"o  c #353631",
"O  c #353934",
"+  c #3C3B33",
"@  c #3E3E39",
"#  c #4D3B1E",
"$  c #543A16",
"%  c #55371D",
"&  c #553B1D",
"*  c #593B1D",
"=  c #623F1C",
"-  c #4C3B25",
";  c #42362B",
":  c #423A2F",
">  c #4C3D2B",
",  c #403426",
"<  c #553B22",
"1  c #5A3E22",
"2  c #523D29",
"3  c #583F29",
"4  c #523722",
"5  c #443E34",
"6  c #493E33",
"7  c #453E39",
"8  c #483F38",
"9  c #613F21",
"0  c #3D423E",
"q  c #56411D",
"w  c #5C431E",
"e  c #5D4B1C",
"r  c #57491A",
"t  c #62421E",
"y  c #68451F",
"u  c #624E1C",
"i  c #4C422D",
"p  c #45402D",
"a  c #544224",
"s  c #5C4324",
"d  c #564821",
"f  c #5E4A24",
"g  c #53442B",
"h  c #5C4429",
"j  c #54482D",
"k  c #5D4A2C",
"l  c #5F512E",
"z  c #454135",
"x  c #4C4233",
"c  c #444239",
"v  c #4D453B",
"b  c #4F4B3F",
"n  c #4F4933",
"m  c #534433",
"M  c #5A4533",
"N  c #564A35",
"B  c #5C4B33",
"V  c #51463B",
"C  c #544A3B",
"Z  c #5C4D3B",
"A  c #5D523C",
"S  c #5B5034",
"D  c #624424",
"F  c #684724",
"G  c #644B26",
"H  c #694C26",
"J  c #624629",
"K  c #69472B",
"L  c #654C2B",
"P  c #6A4D2B",
"I  c #704F2C",
"U  c #675026",
"Y  c #6B5026",
"T  c #65512C",
"R  c #6C522D",
"E  c #725325",
"W  c #72532E",
"Q  c #7A572F",
"!  c #74592D",
"~  c #7B5B2D",
"^  c #604731",
"/  c #644D33",
"(  c #6A4E31",
")  c #634E3B",
"_  c #645233",
"`  c #6C5332",
"'  c #6D5A35",
"]  c #63523B",
"[  c #6B553A",
"{  c #67583B",
"}  c #6C593D",
"|  c #735533",
" . c #795734",
".. c #755831",
"X. c #765A36",
"o. c #755934",
"O. c #795A31",
"+. c #7D5D32",
"@. c #7A5A35",
"#. c #7B5D35",
"$. c #7E5E36",
"%. c #7B5B35",
"&. c #755639",
"*. c #795739",
"=. c #765A3A",
"-. c #765A3C",
";. c #745A3B",
":. c #7A5A39",
">. c #7A5D39",
",. c #7D5E3A",
"<. c #7C5C3A",
"1. c #7E6035",
"2. c #7D603A",
"3. c #7D613B",
"4. c #4E4746",
"5. c #4C4B42",
"6. c #404541",
"7. c #584D45",
"8. c #554C48",
"9. c #5D5343",
"0. c #57544F",
"q. c #5C554C",
"w. c #5F5A4E",
"e. c #5E5756",
"r. c #5E5A52",
"t. c #654F41",
"y. c #635544",
"u. c #695643",
"i. c #645A45",
"p. c #6B5A43",
"a. c #62554C",
"s. c #645A4B",
"d. c #6B5D4B",
"f. c #705741",
"g. c #735C43",
"h. c #7D5E40",
"j. c #715E4C",
"k. c #615652",
"l. c #645C52",
"z. c #6A5F53",
"x. c #635E58",
"c. c #735F51",
"v. c #6B614E",
"b. c #756245",
"n. c #7A6144",
"m. c #74634C",
"M. c #796449",
"N. c #77684B",
"B. c #79684E",
"V. c #6D6353",
"C. c #6C645A",
"Z. c #6F685D",
"A. c #626058",
"S. c #736554",
"D. c #796751",
"F. c #756A56",
"G. c #7B6C54",
"H. c #72665A",
"J. c #736A5C",
"K. c #7B6D5B",
"L. c #6D6662",
"P. c #6F6963",
"I. c #756D60",
"U. c #7A6A61",
"Y. c #7D7462",
"T. c #7B7469",
"R. c #7E786B",
"E. c #767062",
"W. c #815C2D",
"Q. c #825E35",
"!. c #815D3A",
"~. c #816035",
"^. c #80603A",
"/. c #825D42",
"(. c #81715F",
"). c #837463",
"_. c #867B66",
"`. c #85766B",
"'. c #837B6D",
"]. c #8A7A6C",
"[. c #907F6D",
"{. c #827672",
"}. c #837A72",
"|. c #8A7C74",
" X c #8C7E7B",
".X c #8E8074",
"XX c #86807A",
"oX c #958A76",
"OX c #94847B",
"+X c #998779",
"@X c #958D7C",
"#X c #998B7E",
"$X c #928273",
"%X c #948984",
"&X c #968888",
"*X c #9C8D8E",
"=X c #988A86",
"-X c #9E9282",
";X c #9F908B",
":X c #A4968C",
">X c #A99D8F",
",X c #A49A95",
"<X c #AB9D91",
"1X c #A69F99",
"2X c #AB9D98",
"3X c #A59693",
"4X c #ACA18F",
"5X c #ACA194",
/* pixels */
"[ L L R ..#.$.+.P H L G s 1 s L -.,.,.!.O.Q  .I = * * * ` ' ` H P H L D q q & s &././.!.*.| | H K s s G R R R | ..#.>.| H L T T ",
"[ L L R ..#.$.#.W R H L J s s L ;.,.,.$...W Q H D 1 1 s | ;.o.R P H P L s q q D | ,.!.<.*.|  .` F s s L L H H R ..#.>.| H L T T ",
"' L G R ..#.1.#.W R ` _ L s s L ;.,.,.#.W R ` L J h s h -.2.2.O.Y G L L s s a L | ,.!.,.:.*.;.` L s a L L L L H o.>.,.| R G U T ",
"` L G Y ! +.1.+.W R ` _ L a h L o.$.2.#.| R ' / L h h J :.2.~.Q Y H L L h h a L ..^.Q.$.@.o.-.` L s s f L L L R >.2.2...Y G U R ",
"` H H E ! +.~.+.W R ` ` L s s L Q +.$.#.R ` ' / k h s D @.Q.~.~ E H Y L J s s L O.~.~.+.+.@.<.| L s s L L L L R o.#.$...Y H H Y ",
"| H H Y ! +.~.+.#...o.' L s s G W Q Q ..R L ` L h 3 1 D O.Q.~.W.~ ! ..R L D D F Q +.~ ~ +.$.,.| J s & s L L L H | ....W H H H R ",
"` H F P Q +.~.$.,.,.>.o.H w w F I W W R H L / J 1 & * t ..Q.~.W.~ O.$...H D D F Q +.+.+.$.,.,. .D * & s L L L H R W W R H H L R ",
"[ L L R | >.3.,.3.,.,.;.P s w F P ` ` ` L L / h < & * 1  .,.^.$.,.,.^.o.H w w F  .,.#.,.2.,.n.&.D * & s L L L L ` ` ` ` L L L _ ",
"y.N N B } g.;.g.g.n.n.f./ s s J / ] ) ] ] ] ] / 3 < % h [ f.g.g.g.M.n.g.L s s L [ f.f.g.b.M.M.;.J & < a k B k ] ] } u.] Z C Z Z ",
"b 5 : x m C N Z j.m.D.g./ 3 < 3 m V v C y.d.d.] h < 4 2 M C C 9.d.S.B.g.f a a h M Z C y.d.D.B.p.k < < 2 g g m C s.z.z.9.v 5 5 c ",
"6.O o o 5 c 6 v l.C.H.d.C > - > 6 c @ 5.r.C.V.y.m 2 > > 6 5 c 5.x.Z.C.v.N g g m x 6 7 8.z.J.H.s.M 2 > > > 6 5 v l.Z.L.0.@ o O O ",
"0 O o o + c 6 v l.C.J.z.Z > - > 6 7 + 5.r.Z.C.y.m 2 > > 6 5 c 5.A.P.J.V.N g i x x 6 7 8.C.Z.C.d.M > > > : 5 6 b l.P.P.0.@ o O O ",
"c . .   5 x x V l.C.H.s.C > - > 6 x c b s.V.V.y.m 2 - > m x c 5.A.C.V.d.B j g g x x 6 7.z.C.H.d.M 2 > > > > 6 V l.J.H.q.6 . + + ",
"C x x i N A Z ] i.d.d.y.B a < h B ] Z y.i.d.d.] k a < a / ] A A i.i.i.} h h h h B Z Z u.d.d.j.u.^ h g g j m m C d.S.S.y.N i x x ",
"[ L L / [ -.-.g.} [ ] _ L s s G ..,.-.;.} { [ / J D * F | ,.-.;._ _ L R s D D K ' -.-.-.g.f.f.&.L s s s L L k / ;.n.n.&./ L L L ",
"` L L Y o.3.>.,.;.` ( R L s t F Q !.,.X.o.` ` L D t = y ..^.#...R G G H t = t F ..,.,.>.;.&.<.| L D D D G L D L -.,.h.o.P F H H ",
"[ T G H ..$.,.,.| ` ` ` L w s G ..!.,.#.| ` | P J s 9 D @.,.2...P H H L D w t F O.!.,.,.:.&.;.| J h s D G H H R o.,.,.| P L H R ",
"[ T G H ..$.!.,...| | ` L s s G @.!.,.,.@.o.:.P D 1 * D :.2.2.#.W P H H f s s G | %.%.<.<.@.>.| L h s G R R R R | ;.;.` L G U R ",
"' L G P O.Q.!.!.%.@. .' L s s G @.$.$.,.,.,.,.| D * * s &.,.,...| ` ` T f s s L R  . .<.$.$.2...L s s L | o. .&.` ` ` R L L L R ",
"` H F P Q Q.!.!.%.@.o.| L s s G O.$.$.$.$.,.,.| s * & s &.,.,.o.| ` ` _ f s h L | :. .<.!.$.1.! G e w L | -.-.&.` P R R L L L ` ",
"` H F I Q Q.Q.!.%. .o.' L s a L @.~.~.~.#.#.>.| s & & s &.,.,.>.` ` [ _ k s h J ` *.*.<.,.$.+.! u r r L [ -.-.&.| R R R R L L ` ",
"' H G P Q Q.Q.!... .o.| L s a L ..Q.~.$.....o.P s & & 1 | | | | ` _ [ _ h s h J ( | |  .@.@.O.! u r w L [ &.&.&.&. .| W R L L / ",
"[ _ L P ..$.!.Q.%. .o.| L s s L ..+.+.+.W W W L s & % * P H F L ` _ [ _ h s h s L | | | &.o.:.` f d s L ` &.| |  .@...W H L L / ",
"{ _ L (  .<.!.!.%.@.:. .P s s L #.1.+.+.W W R D 1 % % & P G H H ( ` ' ` s s f f L ` ` ' &.;.-.[ k g g k ( ` | | ..@.@.W H L L T ",
"i.Z B _ &.<.,.,.@.@.:.o.P s D H ..~.+.Q Q W R L 1 & % & P H H H ` [ ` ` L D w D L _ _ } g.j.j.d.Z C m B ` ` R Y ..O.o.| P L T T ",
"I.V.v.m.n.n.3.,.@.@.:. .P s D H ! 1.1.1.$.#.>.| D 1 1 1 | o.@.;.` ' ` ` D D w f L T _ m.[.+X#XOX|.|.`.G.;.T H Y W .. .` P L L L ",
"T.E.K.G.B.n.,.>.@.@.:. .H w s G ! 1.1.1.2.2.2.| J 1 * s ;.,.3.>.| ` ` ` D w w w f l _ m.#X:X<X3X*X&XOX).} L G U R R ` ( L L G G ",
"T.I.K.G.M.n.,.<.@.@.o. .H w s G ..1.$.1.2.2.>.| J 1 & 1 &.,.2.>.o.` R | w w s s k k S v.-X<X2X2X*X&XOX).p.L L G L R ` ( P L G G ",
"T.J.F.B.n.3.!.,.#.@.o.| L s s G ..$.$.1.#.>.>.| s & & 1 &.>.2.#...R R | s s s h B ] A V.-X<X<X:X=X%XOX].d._ _ _ [ [ ` ( P H H H ",
"H.v.p.;.-.>.!.$.%.O...| L s s L ..~.$.#.o.o.o.` s & & & ` | | R R R R ` s s k ) B._._.).).Y.Y.).F.V.V.S.F.K.K.D.g.} [ ` P L G F ",
"i.] / `  .%.Q.O.$.@...` L s s L ..2.2.#...R ` L s & & & G F F G T T T ` h h M y.$X5X4XoXd.Z B _ g - > y.`.#X#X$Xm.g.;.' P L L H ",
"p._ L ` ..^.~.+.$.@.o.` L s h L | 2.2.#...Y R L s & & & G G H G U T R ` J h M y.|.5X>XoXp._ L f a # > y.}.%X%XOXS.g.;.' P H H P ",
"' T L R ..#.O.$.O.O.@. .L s a L  .<.,.@.W W ` P a & & < D R G G U R ` ` s a h ] |.5X<X@Xb.` L P D & 2 a.{.%X%X|.D.f.| | Y G L L ",
"' T L L R ..W ..@.@.:. .H 1 1 J  .<.,.@...| | ` J 1 1 s J P G G R R ( ( s & a A |.1X,X@XN.-.` I 9 % 2 y.T.XXXX'.j.[ ` W H H L L ",
"' T L L R R Y W @.>.,.o.G * * D I  .<.@...o. .| L s s s L P L L R R ( ( 1 < 3 Z {.,X,X@XG.M.-. .D < - y.I.R.R.Y.p.[ R R L G L L ",
"' _ T T ` ' ` ' ;.,.n.;.L & * s ` &.-.&.&.;.;.' L s s s L L L _ _ _ / ) 3 < 2 Z {.,X2X#XG.b.-.-.L # - A J.'.R.Y.p.{ _ _ L L T k ",
"} B B B ) ] _ } } b.n.;.L & & a ` } p.} f.g.f.[ L s s s h k B _ ] ] ] ] 3 < 2 Z `.;X:XOXK.B.m.g.B i i 9.F.Y.Y.Y.i.i.y.] B B B B ",
"Z i > i m m m Z i.m.B.g./ 3 < h B N C Z u.c.j.p./ s s a g m m C y.d.d.d.M g h B j.U.).Y.).).).K.V.v.v.v.v.d.d.V.v.v.d.9.x p i > ",
"V :   . 5 6 5 v s.C.H.d.) g g g i p 5 V a.H.H.d._ j g g i x z 5.l.L.H.c.B h a f k ) ] d.)..XOX|.}.}.R.F.d.Z Z 9.V.Z.P.q.6     , ",
"b .   . 5 c 7 v w.C.J.v.] m g g x z 5 b k.U.H.d.Z j g i i 5 7 4.e.L.I.S.B f q w L L k p.)..XOX X}.}.R.S.u.) ) y.z.H.P.e.7   X X ",
"5.5 : : 6 c 7 v w.V.H.d.] j g j x z c b k.C.H.d.B g g g i x 7 4.e.C.H.v.k s w e G G L p.(.].|.'.T.T.K.m.} / / ) d.H.C.q.z : ; ; ",
"9.m x x m V m C y.d.d.p.) h a h j n m C a.d.d.u.k a a a j N V 7.a.l.d.p.f s s w G U L [ m.D.S.V.s.s.y.] / L L / u.d.s.9.C m m g ",
"p.) B B B B B ) _ [ [ ` L s s s k B B B ) [ [ / s $ $ q f ) B ) y.{ ] _ h h s s D L L L [ [ [ ] m g 3 s G F F L _ ] { ] A B B B ",
"-.` L L L L L ( ( ` ` P F t t D L L / / ( ` ( P s $ $ * J ( / / _ _ T T s h h h D P L L ` ` R T a & & * F H H F R _ _ _ _ _ L L ",
" .P L G L H F P W W | R F t w t G H H P ` | | H D * * * F P P P R R R R s h h h L R L L ` ` R U s & & w H Y Y Y Y R R R T L G G ",
"o.H L G H Y H W Q O.@.| G * * w L H H H W ..| R D 1 1 s L ` P R ..@.O...s 3 < a L R H Y &.@.+.W D * * D W ......H H H H G G G G ",
";.R L G H W Y Y ..>.,.;.L & & a L ( ` R ` o.o.' L a h h / ' ` | :.!.$...s < < a G R Y W :.,.1.O.D * * K &.h.,.2.P H F H H G G H ",
"o.T L L R ` R Y o.,.3.;.L & & a L ( ` ` o.-.;.' / h h h / | ` | <.!.$...s & < s G Y Y | :.,.,...K 1 % K &.h.,.>.W H F F H G L L ",
";.R L L T R R |  .<.!.:.H & & s L ` R |  .o.-.| L s s f L ` ` | :.>.>.o.a < < s L | R | :.>.>. .J 1 * K  .,.,.#.Y H G G L L L L ",
";.( L L T R R R @.<.!.:.H & & s R | |  . .o.:.` L s s f L P ( ( | o.;.' 3 < & s P | | |  .| o.` h < * F ..!.,.#.Y R L L L L L L ",
";.( L L T R R R @.,.!.:.K & & s ` o. .@.:.&.:.` L s s s L L H H R | ` ` < & & 1 P ;.o. .| R ` ( s & & F ..!.!.#.W R R R T L L L ",
";.R L L T ` R R @.<.!.*.K & & s R o. .:.:.&.:.' L s s s L L H H P ` ` ( & & & 1 ( <.:. .| P ` P a & & F ..,.,.#.W R R R L L L L ",
";.R L L R ` R | <.,.,.*.K & & s `  .*.:.:. .&.` D s s s L L H H P ` ` ( 1 < & 1 ( :.:...| R R L 3 < 1 K ..$.$.#.| R R R L L L L ",
";.R L L R | W ..:.<.<.&.K & < s ` ;.*.:. .| | ( D s s s L L H H P ` ` ` s a s s P :. .| | H L L 3 < * K | @.@...W ` ` R L L L L ",
";.T L L R o.| @.:.:.*.&.K & < s ` o.:.:. .| | L D s s s L L H H P R ` ` s s s D P :. .W R H L L 3 < * D |  .@...| ` ` ( L L L H ",
";.T L L ` #.o.>.*.;.-.| J & < h ( o.:.*. .` | L D s s s L L H H R ` ` ` s s s D P @. .| P L L L 3 4 & D |  . ...| ` ` ( L L L P ",
"o.R L L | o.o.o.o.o.&.| J & < s | @.*.*. .| | P L s s s L L H H R R R ` s s s D P @.@.| P L L J 3 4 % D | :.@. .| ` ` ` ( L L P ",
"o.R L L | o.o.o. .| | ` J & < s ( @.:.:.*. . .` L s s s L L P H H H L R s & * D W ,.$...P L L L 3 < & D | *.@. . .| ' ` ( L L P ",
"' R L H |  .@.o.| | ` ( s & & s (  . .:.*. .&.` L s s s T R ` R L L L L & & & w | ,.,...P L L L 3 < & D | *.:.o.;.;.&.` R L L H ",
"' R L H | @.@. .| R R L s & & s I  . .*.*. .&.| L s s s R ` ` ` P L L L & & & w W ,.^...P G L L 1 & * D | :.:.:.:.;.;.| R L L H ",
"' R L H | %.%.O.W R R L s & * D W @.@.%.*. .;.| L s s s ` ` ` ` R L L L & & * w I ,.!.@.R L L L a < * J W  . . .;.;.;.| P L L H ",
"' R L H ..$.,.@.W R L L s q s G ..$.,.,.<.@.*.| J & & a _ ` ` ` L L L L & $ & w W ,.^.@.| P ` L h a 1 F P | | |  .;.;.' P L F F ",
"' T L H ..!.!.@.R H G G D w D L O.,.!.!.<.@.:.| s & & < _ ` ' ( L L L L & & * w W ,.^.@.| R ` L L s s K P I | |  .;.;.' P L F F ",
"' T L H ..!.^.$.R R G G D w D G O.,.,.,.%. .*.` s & & & L ` ` ( L L L L & & * w W $.,.@.| R ` L L s s L P I | |  .;.;.' P L F F "
};
