/* XPM */
static char *_985a53abd3e47b6e03fe88e98f92ccf1JmDZ9117kRhKELD[] = {
/* columns rows colors chars-per-pixel */
"64 64 187 2 ",
"   c #281704",
".  c #251807",
"X  c #2B1C07",
"o  c #241A0A",
"O  c #2B1E0D",
"+  c #321C05",
"@  c #3E1F0A",
"#  c #301E0A",
"$  c #2D200F",
"%  c #27210B",
"&  c #36220E",
"*  c #3A220C",
"=  c #332412",
"-  c #3F2612",
";  c #3E2A16",
":  c #3C2A19",
">  c #431E0A",
",  c #4A1E0B",
"<  c #44210D",
"1  c #4A200C",
"2  c #42290F",
"3  c #402713",
"4  c #422A13",
"5  c #4A2D16",
"6  c #6D3F2E",
"7  c #713E2E",
"8  c #6C3F32",
"9  c #6B3E38",
"0  c #6D4326",
"q  c #67432D",
"w  c #6D442B",
"e  c #704326",
"r  c #71442A",
"t  c #674231",
"y  c #6B4132",
"u  c #714230",
"i  c #7B4D33",
"p  c #7D4E3C",
"a  c #7D5534",
"s  c #7D553A",
"d  c #673E5E",
"f  c #593E6B",
"g  c #573E68",
"h  c #5D3B72",
"j  c #523F7F",
"k  c #633D60",
"l  c #633E6E",
"z  c #613E72",
"x  c #5B4368",
"c  c #4E4478",
"v  c #554876",
"b  c #554379",
"n  c #564576",
"m  c #61416C",
"M  c #694464",
"N  c #624072",
"B  c #83532F",
"V  c #844E3E",
"C  c #8B4C3D",
"Z  c #815334",
"A  c #82553B",
"S  c #8E5E3E",
"D  c #925E3E",
"F  c #96613F",
"G  c #874F40",
"H  c #845040",
"J  c #8D5E41",
"K  c #925F42",
"L  c #8F6042",
"P  c #956041",
"I  c #9B6445",
"U  c #9D634A",
"Y  c #9C6A4B",
"T  c #9B6B47",
"R  c #946C54",
"E  c #9A6951",
"W  c #966954",
"Q  c #95715C",
"!  c #9D725C",
"~  c #99755B",
"^  c #A26A46",
"/  c #A36248",
"(  c #A26949",
")  c #AB7657",
"_  c #A5775E",
"`  c #AA775D",
"'  c #AD765C",
"]  c #AB755A",
"[  c #A47A5D",
"{  c #AB7C5D",
"}  c #AA7857",
"|  c #B37C5E",
" . c #966E62",
".. c #9D7462",
"X. c #9B7961",
"o. c #A77E65",
"O. c #AB7D66",
"+. c #A57F6B",
"@. c #AC7D6B",
"#. c #B37C64",
"$. c #B87C64",
"%. c #B47C6B",
"&. c #BA7F6F",
"*. c #A57D72",
"=. c #AA7E72",
"-. c #A37A7C",
";. c #AA7D7D",
":. c #B47F71",
">. c #BA7F73",
",. c #9E8174",
"<. c #A68065",
"1. c #A3816D",
"2. c #AE846D",
"3. c #AF886B",
"4. c #B18467",
"5. c #BD8A66",
"6. c #B3856C",
"7. c #B9876C",
"8. c #BA876C",
"9. c #BB856C",
"0. c #B6896A",
"q. c #B7886C",
"w. c #B7886E",
"e. c #B58A6B",
"r. c #BB8A6D",
"t. c #BF8766",
"y. c #AE8371",
"u. c #AE8C72",
"i. c #AD8A74",
"p. c #AC8C7B",
"a. c #A08073",
"s. c #B48473",
"d. c #BB8472",
"f. c #B28A70",
"g. c #B78E75",
"h. c #B58A73",
"j. c #BD8B72",
"k. c #BE8A72",
"l. c #BD8E70",
"z. c #BD8E72",
"x. c #BC8D72",
"c. c #BD8B74",
"v. c #B98E75",
"b. c #BD8E74",
"n. c #BE8D75",
"m. c #BA8A73",
"M. c #BA8179",
"N. c #B28A7C",
"B. c #BA8978",
"V. c #B89077",
"C. c #B69176",
"Z. c #C08A69",
"A. c #C0876C",
"S. c #C6967F",
"D. c #C5957F",
"F. c #C4967F",
"G. c #4E3E84",
"H. c #4E3E89",
"J. c #533D84",
"K. c #5A3A84",
"L. c #533C8A",
"P. c #5A3B8B",
"I. c #514083",
"U. c #51408B",
"Y. c #AA7D81",
"T. c #AC8585",
"R. c #AD8B81",
"E. c #AD858A",
"W. c #AC8888",
"Q. c #B08A84",
"!. c #B18788",
"~. c #C69680",
"^. c #C69682",
"/. c #C49681",
"(. c #C19883",
"). c #FFE9D9",
"_. c #FFEFE3",
"`. c #FCE6EA",
"'. c #FFF2E5",
"]. c #FFF3E9",
"[. c #FFF9EE",
"{. c #F5EFFF",
"}. c #FAECF7",
"|. c #FFF7F2",
" X c #FFFBF3",
".X c #FFF5FC",
"XX c #FEFEFD",
/* pixels */
"O O $ $ $ $ $ $ O O O O O O O O O O O O $ $ $ $ O O O O o o o o o o o o . . . . . . . . . . . . O O O O O O O O O O O O O O O O ",
"O O O O $ $ $ $ O O O O O O O O O O $ O $ $ $ $ O O O O o o o o o o o o . . . . . . . . . . . . O O O O O O O O O O O O O O O O ",
"O O O O O O $ $ O O O O O O O O & $ $ $ $ $ $ $ O O O O O O o O o o o o o o o o o . o o . . . . O O O O O O O O O O O O O O O O ",
"O O O O O O $ $ O O O O O O O O $ $ $ $ $ $ $ $ O O O O O O O O o o o o o o o o o . . . . . . . O O O O O O O O O O O O O O O O ",
"O O O O O O $ $ O O O O O O O O $ $ O O $ $ $ $ X X X O O O O O o o o o o o o o o o o o o o o o O O O O O O O O O O O O O O O O ",
"O O O O O O $ $ O O O O O O O O $ $ O O $ $ $ $ X X X O O O O O . . . . . . . . o o o o o . o . O O O O O O O O O O O O O O O O ",
"$ $ $ $ $ $ $ $ O O O O O O O O O O O O $ $ $ $ X X O O O O O O . . . . . . . . . o . o . . . . O O O O O O O O O O O O O O O O ",
"$ $ $ $ $ $ $ $ O O O O O O O O O O O O $ $ $ $ X X O O O O O X                 X X X X X X X X O O O O O O O O O O O O O O O O ",
"O O O O O O O O O O O O O O O O O O O O O O O O = = = = = = = = ; ; ; ; ; ; ; ; ; ; ; ; ; ; : : O O O O O O O O O O O O O O O o ",
"O O O O O O O O O O O O O O O O O O O O O O O O = = = = = = = = 4 4 4 4 4 4 4 4 4 4 4 ; 4 ; ; ; O $ $ $ O O $ $ O O O O O O O O ",
"O O O O O O O O O O O O O O O O O O O O O O O O = = = = = = = & 4 2 4 4 4 4 4 4 4 4 4 ; 4 ; 4 ; O O O O O O O O O O O O O O o O ",
"O O O O O O O O O O O O O O O O O O O O O O O O = = = = = = = & 4 2 2 4 4 4 4 4 4 4 4 4 4 4 ; ; O O O O O O O O O O O O O O O O ",
"O O O O O O O O O O O O O O O O O O O O O O O O = = = = = = = & 4 2 4 4 4 4 4 4 4 4 4 4 4 4 ; ; O O O O O O $ $ O O o o o o o o ",
"O O O O O O O O O O O O O O O O O O O O O O O O & = = = = = = & 4 2 2 2 2 4 4 4 4 4 4 4 4 ; ; ; O O O O O O O O O O o o O O o o ",
"O O O O O O O O O O O O O O O O O O O O O O O O = = = = = = = = 4 4 4 4 4 4 4 4 4 4 4 4 4 ; ; : O O O O O O O O O O o o o o o o ",
"O O O O O O O O & & * * * * * & * * * * * * * * - - 3 3 - - 3 3 5 5 5 5 5 5 5 5 5 5 5 5 5 5 5 5 * * * * @ * & = X X X o O O O O ",
"O O O O $ O O & i.u.f.f.f.f.u.u.C.V.V.V.V.V.V.V.(.(.(.(.(.(.(.(.v.x.v.v.x.v.x.h.v.v.v.V.v.V.g.g.[ [ [ [ [ o.X.X.* & = = = = = = ",
"O O O O $ O # * u.f.q.7.e.e.e.e.r.r.l.r.l.l.b.b.~.S.S.S.~.~.~.S.c.c.c.c.c.c.c.c.l.l.l.l.b.b.l.l.} ` } ) ] ` _ ~ * * = = = = = = ",
"O $ O o $ O X * u.f.q.7.7.e.q.q.V.l.l.l.l.l.b.b.~.S.~.~.~.~.~.S.c.c.c.c.c.c.c.c.b.b.b.b.b.b.l.l.} ` ] ) ] ` _ X.* * = = = = = = ",
"O $ o o $ O X * u.f.q.7.7.7.q.q.l.l.l.l.l.l.b.b.~.~.~.~.~.~.~.S.c.c.c.c.c.c.c.c.b.b.b.b.b.l.l.l.` ] ] ] ] ` _ X.* = = = = = = = ",
"% $ % % $ O X * u.f.q.7.7.7.q.q.l.l.l.l.b.b.b.b.~.~.~.~.~.~.~.S.b.b.b.b.l.l.l.l.l.l.l.l.l.l.l.l.] ' ' ] ] ` _ ! * * = = = = = = ",
"X O O O O O + * u.f.q.7.7.7.q.q.l.l.l.b.b.b.b.b.~.~.~.~.~.~.~.~.m.c.c.c.c.c.x.x.l.l.l.l.l.l.l.l.] ' ' ] ] ` _ ! * * = = = = = = ",
"X X X X O + + * u.6.6.q.q.q.6.6.x.x.x.v.v.v.v.v.~.~.~.~.~.~.~.~.m.m.m.m.m.m.m.m.b.b.l.l.l.l.l.l.] ' ] ] ] ` _ ! < < * * * * * * ",
"@ * @ & * @ @ < u.6.6.q.q.q.6.6.x.x.v.v.v.v.v.v.~.~.~.~.~.~.~.~.m.m.m.m.m.m.m.m.b.b.l.l.l.l.l.l.] ] ] ] ] ] _ _ 1 < < < < < < < ",
"1.1.1.1.1.1.1.<.2.2.4.6.6.6.4.4.O.O.O.O.O.O.O.O.@.@.@.@.2.@.@.@.! ! ! ! ! ! ! ! m.m.m.w.w.w.w.w.Y Y Y Y Y Y Y Y E W W W W W R R ",
"@.@.@.1.+.+.@.@.6.6.6.6.6.6.6.6.O.O.O.O.O.O.O.O.@.@.@.@.2.2.@.@.! ! ! ! ! ! ! ! h.q.m.m.m.w.m.w.Y Y Y Y Y Y Y Y E E E E E E E Y ",
"O.O.@.@.+.+.@.@.6.6.6.6.6.6.6.6.O.O.@.@.O.@.@.@.@.@.@.@.@.@.@.@.! ! ! ! ! ! ! ! m.m.m.m.m.m.m.m.Y Y T T T T Y Y Y Y E E Y Y Y Y ",
"O.O.@.@.@.@.@.O.6.6.6.6.6.6.6.6.O.O.O.O.O.O.O.O.@.@.@.@.@.@.@.@.! ! ! ! ! ! ! ! m.m.m.m.m.m.m.m.Y Y T T T T Y Y Y Y Y Y Y Y Y Y ",
"O.O.O.@.@.@.@.O.6.6.6.6.6.6.6.6.@.@.@.@.@.@.@.@.@.@.@.@.@.@.@.@.! ! ! ! ! ! ! ! h.h.m.m.m.m.d.m.E Y Y T T T T Y Y Y Y Y Y Y Y Y ",
"O.O.O.O.@.@.@.O.6.6.6.6.6.6.6.6.@.@.@.@.@.@.@.@.@.@.@.@.@.@.@.@.! ! ! ! ! ! ! ! m.m.m.m.m.m.m.m.Y Y Y T T T T T Y Y Y Y Y Y Y Y ",
"<.o.O.O.O.@.O.O.6.6.3.6.6.6.6.6.O.O.@.@.@.@.@.@.2.2.=.=.=.=.@.@.! ! ! ! ! ! ! ! m.m.m.B.B.m.B.m.E E Y Y Y Y Y Y Y Y Y Y Y T T T ",
"<.o.O.O.O.O.@.o.h.p.p.p.p.p.p.p.-.-.-.-.-.-.-.-.=.@.:.:.@.2.@.@.! ! ! ! ! ! ! ..!.E.E.T.E.E.E.T. .Q Q Q Q Q Q Q W E E Y Y Y Y Y ",
"2.2.6.6.4.6.y.p.].[.|. X|.|.|.}.x h h f g g f k ;.%.%.%.%.#.#.#.w.m.m.m.m.B.h.R.k h g g x g f x .X|.|. X X|.[._.+.@.O.O.O.o.O.@.",
"f.6.6.q.q.6.u.p.[.XXXXXXXXXXXX{.b L.L.J.I.j J.N ;.%.%.%.%.#.$.#.w.m.c.c.d.m.h.W.h P.J.I.I.I.J.v XXXXXXXXXXXXXX].a.@.O.O.<.o.@.@.",
"6.6.6.7.6.6.s.p.|.XXXXXXXXXXXX{.c L.J.J.J.J.J.z ;.%.%.%.#.#.$.#.m.m.c.k.c.m.h.W.h P.L.G.U.G.J.v XXXXXXXXXXXX X'.+.O.O.{ { { O.O.",
"6.6.6.9.9.6.s.R.|.XXXXXXXXXXXX{.c G.J.J.G.J.J.h ;.O.#.%.#.#.#.%.m.m.c.r.7.m.f.T.h P.L.H.U.G.J.v XXXXXXXXXXXX X'.1.@.O.{ { { O.#.",
"6.6.9.9.9.6.s.R.|.XXXXXXXXXXXX{.c I.J.J.J.J.K.l ;.#.#.#.#.%.%.%.d.m.c.r.r.m.f.E.h P.L.L.U.U.I.v XXXXXXXXXXXXXX].,.+.O.O.O.O.O.O.",
"6.q.q.7.6.6.s.p.[.XXXXXXXXXXXX{.n J.J.J.J.J.K.l ;.@.#.%.#.%.%.%.d.c.c.r.m.m.h.E.h P.L.L.L.J.J.v XXXXXXXXXXXXXX].,.1.o.o.o.o.O.O.",
"3.3.6.6.6.2.u.p.[. XXXXXXXXXXX{.b K.K.K.K.K.K.l Y.@.@.#.%.#.#.#.m.m.m.7.m.m.N.E.l K.K.K.P.K.K.n .XXXXXXXXX X X'.,.1.o.<.<.o.o.@.",
"6.4.6.6.4.6.2.i.).'.'.].].].].`.m z z z z l l M -.O.O.@.O.O.O.O.6.s.s.s.s.h.s.T.d l l l N z l M `.'._.'._._.'.).1.o.o.O.O.O.O.o.",
"U U U U U U U E @.+.+.*.*.=.=.=.T.E.T.T.T.E.E.Y.t w 6 6 6 6 6 6 w w 6 y 6 6 w y !.!.!.Q.Q.R.Q.N.R R R R R R R R Z Z Z Z Z Z Z Z ",
"U / / / / / / U #.#.#.O.#.#.#.%.s.s.y.2.y.f.s.y.w w 6 8 8 8 6 q w q 8 y 8 6 w w h.h.e.e.e.e.e.0.Y T T Y Y Y Y Y Z Z B B Z Z Z Z ",
"I I I I I I U U #.| | #.#.#.#.#.>.M.s.s.s.s.s.s.6 q 8 8 8 6 q w q q t y 8 8 y r m.w.r.5.5.r.r.r.^ ^ ^ ^ ^ ( ( ( B B Z Z Z Z Z Z ",
"I I I I I I I I | | | | | | | #.>.>.s.s.d.d.>.:.8 t 8 8 8 6 q q q q t y 9 8 y u m.r.r.5.Z.r.r.A.^ ^ ^ ^ ^ ^ ( ( Z Z Z Z Z Z a a ",
"I I I I U U I I | | | | | | #.#.>.>.s.s.9.d.&.%.8 t y t 8 8 q q q q t y y 8 y u 7.8.t.5.t.t.r.t.( ( T T ( ( ( Y Z s s s A Z s s ",
"I I I I U U U I | | | | #.#.#.#.&.d.s.s.d.d.d.%.t t t 8 8 6 t t y t 8 t t 8 y u c.r.r.Z.r.r.A.A.( ( T T ( ( ( Y a s s s Z s s a ",
"I I I I I U U I #.#.#.#.#.#.#.#.&.d.f.s.M.d.>.%.t t q q 6 8 t t y q 8 y q 6 8 u c.r.r.r.c.c.r.r.( ( ( ^ ^ ^ ^ ^ Z a a Z Z Z a a ",
"I I I I U U U U | | #.#.#.#.#.#.%.6.y.y.y.s.:.@.q q 6 6 7 7 8 8 y 6 w w 6 6 y u 6.6.6.s.6.6.7.9.( ( Y ^ ^ ^ ^ ^ Z a Z Z Z Z Z Z ",
"K K K K K K K K K P K K K P K K , > < < < > , , H H C C C C H H A A A C C C H A , 1 < < 1 , , , K D D D D D S S Z Z Z Z Z Z A Z ",
"J J J J K K J J K P K K P P K K , < < * * < < , V C C C C C C V V V C C C C V V , < < < < 1 , 1 J S S S S S S S Z Z Z Z Z Z A A ",
"K K K K K K K D K P K D D K D K , > < < < < < , H C C C C C C C V C C C C C C V , < < < < < 1 1 J D D D S S S S Z Z A A Z Z A A ",
"K K K K K K K K K P K D K P D K , > < < < < < , H G C C C C C C C C C C C C C V , < < < < < < 1 J D D D S S S S Z Z A A Z Z A A ",
"K K K K K K K K P P P K F F F K , > < < < < , , V V C C C C C V C C C C C C V V , 1 < < < < < 1 J S S S J J S S Z Z Z Z A A A A ",
"K K K K K K D D P P P P D F K J > > < < < < < , A V C C C C V V C C C C C C V V , 1 < < < < < 1 J S S S J J S S Z Z Z Z A A A A ",
"J J J J J J J J K P P K D P K J > > < < < < < , A V V V V V V V V V C C C C V V , 1 < < < < < 1 J J J J J J J J Z Z Z Z A A A A ",
"J J J J J J J J J L P K K P K J > < < < < < < > s V V V V V V V V V V V V V p p , 1 < < < < < 1 J J J J J J J J Z Z Z Z A A A A ",
"r r r r r r r r r e e e 0 0 0 w < < < < * < < > > , , , , , , , , , , , 1 1 1 1 < < < < < < 1 1 A A A A A A A A i i i i i i i i ",
"w w w w w w r r w w w w w 0 w w < < < < < < < < > > > , , , , > < < < < < < < < < < < < < < < 1 A A A A A A A A i i i i i i i i ",
"w w w w w w r w w w w w w w w w < * * * < < < < > > > > > > > > < < < < < < < < < < < < < 1 1 1 A A A A A A A A i i i i i i i i ",
"w w w w w w w w w w w w w w w q < * * < < < < < > > > > > > > > < < < < < < < < < < < < > 1 1 1 A A A A A A A A i i i i i i i i ",
"w w w w w w w w w w w w w w w w < * * < < < < < @ @ @ @ > > > > < < < < < < < < < < < < < < < 1 A A A A A A A A i i i i i i i i ",
"w w w w w w w w w w w w w w w w < < < < < < < < @ @ @ @ > > > > < < < < < < < < < < < < < < < 1 A A A A A A A A i i i i i i i i ",
"r r r w w w w r w w 0 w 0 0 0 w < < < > > > > < @ @ @ @ > > > > < < < < < < < < 1 < < < < 3 3 < s A A A A A A A i i i i i i i i ",
"r r r r w w r r w 0 0 w 0 w 0 w < < > > > > > < > @ @ @ > > > > 1 < < < < < < < 1 1 1 1 3 3 3 < s A A A A A A A i i i i i i i i "
};
